<?xml version="1.0" encoding="utf-8"?>
<!-- Generator: Adobe Illustrator 18.1.0, SVG Export Plug-In . SVG Version: 6.00 Build 0)  -->
<svg version="1.1" id="Layer_1" xmlns="http://www.w3.org/2000/svg" xmlns:xlink="http://www.w3.org/1999/xlink" x="0px" y="0px"
	 viewBox="0 0 3000 2000" enable-background="new 0 0 2834.6 2834.6" xml:space="preserve">
<text transform="matrix(1 0 0 1 22 2812.0063)"><tspan x="0" y="0" fill="#FFFFFF" font-family="'ArialMT'" font-size="4">GSPublishe</tspan><tspan x="21.1" y="0" fill="#FFFFFF" font-family="'ArialMT'" font-size="4">rEngine</tspan><tspan x="34.8" y="0" fill="#FFFFFF" font-family="'ArialMT'" font-size="4"> </tspan></text>
<text transform="matrix(1 0 0 1 57.92 2812.0063)" fill="#FFFFFF" font-family="'ArialMT'" font-size="4">0.44.100.100</text>
<line fill="none" stroke="#000000" stroke-width="0.2835" stroke-linecap="round" stroke-linejoin="round" stroke-miterlimit="10" x1="150.6" y1="2810.6" x2="151.7" y2="2810.4"/>
<g>
	<defs>
		<polyline id="SVGID_1_" points="21,21 2813,21 2813,2813 21,2813 21,21 		"/>
	</defs>
	<clipPath id="SVGID_2_">
		<use xlink:href="#SVGID_1_"  overflow="visible"/>
	</clipPath>
	<polyline clip-path="url(#SVGID_2_)" fill-rule="evenodd" clip-rule="evenodd" fill="#FFFFFF" points="1104.9,1975.8
		1104.9,1339.4 1105.4,1338.4 1106.4,1338 1592.5,1338 1593.5,1338.4 1593.9,1339.4 1593.9,1954.5 1664.8,1954.5 1664.9,1061.1
		1708.7,855.1 1709.3,854.2 1710.4,854 1727.9,857.7 1728.8,858.3 1729,859.4 1686,1061.6 1686,1975.8 1572.7,1975.8 1572.7,1359.3
		1126.2,1359.3 1126.2,1975.8 1104.9,1975.8 	"/>
	<polyline clip-path="url(#SVGID_2_)" fill-rule="evenodd" clip-rule="evenodd" fill="#FFFFFF" points="1104.9,1975.8
		1126.2,1975.8 1126.2,1977.2 1125.8,1978.6 1124.8,1979.7 1123.4,1980.1 1107.8,1980.1 1106.4,1979.7 1105.3,1978.6 1104.9,1977.2
		1104.9,1975.8 	"/>
	<polyline clip-path="url(#SVGID_2_)" fill-rule="evenodd" clip-rule="evenodd" fill="#FFFFFF" points="1572.7,1975.8 1686,1975.8
		1686,1977.2 1685.7,1978.6 1684.6,1979.7 1683.2,1980.1 1575.5,1980.1 1574.1,1979.7 1573,1978.6 1572.7,1977.2 1572.7,1975.8 	"/>

		<line clip-path="url(#SVGID_2_)" fill="none" stroke="#000000" stroke-width="0.3685" stroke-linecap="round" stroke-linejoin="round" stroke-miterlimit="10" x1="1106.4" y1="1338" x2="1592.5" y2="1338"/>

		<line clip-path="url(#SVGID_2_)" fill="none" stroke="#000000" stroke-width="0.3685" stroke-linecap="round" stroke-linejoin="round" stroke-miterlimit="10" x1="1104.9" y1="1339.4" x2="1104.9" y2="1975.8"/>

		<line clip-path="url(#SVGID_2_)" fill="none" stroke="#000000" stroke-width="0.3685" stroke-linecap="round" stroke-linejoin="round" stroke-miterlimit="10" x1="1104.9" y1="1975.8" x2="1126.2" y2="1975.8"/>

		<line clip-path="url(#SVGID_2_)" fill="none" stroke="#000000" stroke-width="0.3685" stroke-linecap="round" stroke-linejoin="round" stroke-miterlimit="10" x1="1126.2" y1="1975.8" x2="1126.2" y2="1359.3"/>

		<line clip-path="url(#SVGID_2_)" fill="none" stroke="#000000" stroke-width="0.3685" stroke-linecap="round" stroke-linejoin="round" stroke-miterlimit="10" x1="1126.2" y1="1359.3" x2="1572.7" y2="1359.3"/>

		<line clip-path="url(#SVGID_2_)" fill="none" stroke="#000000" stroke-width="0.3685" stroke-linecap="round" stroke-linejoin="round" stroke-miterlimit="10" x1="1593.9" y1="1339.4" x2="1593.9" y2="1954.5"/>

		<line clip-path="url(#SVGID_2_)" fill="none" stroke="#000000" stroke-width="0.3685" stroke-linecap="round" stroke-linejoin="round" stroke-miterlimit="10" x1="1593.9" y1="1975.8" x2="1572.7" y2="1975.8"/>

		<line clip-path="url(#SVGID_2_)" fill="none" stroke="#000000" stroke-width="0.3685" stroke-linecap="round" stroke-linejoin="round" stroke-miterlimit="10" x1="1572.7" y1="1975.8" x2="1572.7" y2="1359.3"/>

		<line clip-path="url(#SVGID_2_)" fill="none" stroke="#000000" stroke-width="0.3685" stroke-linecap="round" stroke-linejoin="round" stroke-miterlimit="10" x1="1593.9" y1="1975.8" x2="1664.8" y2="1975.8"/>

		<line clip-path="url(#SVGID_2_)" fill="none" stroke="#000000" stroke-width="0.3685" stroke-linecap="round" stroke-linejoin="round" stroke-miterlimit="10" x1="1664.8" y1="1954.5" x2="1593.9" y2="1954.5"/>

		<line clip-path="url(#SVGID_2_)" fill="none" stroke="#000000" stroke-width="0.3685" stroke-linecap="round" stroke-linejoin="round" stroke-miterlimit="10" x1="1664.8" y1="1975.8" x2="1686" y2="1975.8"/>

		<line clip-path="url(#SVGID_2_)" fill="none" stroke="#000000" stroke-width="0.3685" stroke-linecap="round" stroke-linejoin="round" stroke-miterlimit="10" x1="1686" y1="1975.8" x2="1686" y2="1061.6"/>

		<line clip-path="url(#SVGID_2_)" fill="none" stroke="#000000" stroke-width="0.3685" stroke-linecap="round" stroke-linejoin="round" stroke-miterlimit="10" x1="1664.8" y1="1954.5" x2="1664.8" y2="1062.2"/>

		<line clip-path="url(#SVGID_2_)" fill="none" stroke="#000000" stroke-width="0.3685" stroke-linecap="round" stroke-linejoin="round" stroke-miterlimit="10" x1="1664.9" y1="1061.1" x2="1708.7" y2="855.1"/>

		<line clip-path="url(#SVGID_2_)" fill="none" stroke="#000000" stroke-width="0.3685" stroke-linecap="round" stroke-linejoin="round" stroke-miterlimit="10" x1="1686" y1="1061.6" x2="1729" y2="859.4"/>

		<line clip-path="url(#SVGID_2_)" fill="none" stroke="#000000" stroke-width="0.3685" stroke-linecap="round" stroke-linejoin="round" stroke-miterlimit="10" x1="1710.4" y1="854" x2="1727.9" y2="857.7"/>

		<line clip-path="url(#SVGID_2_)" fill="none" stroke="#000000" stroke-width="0.3685" stroke-linecap="round" stroke-linejoin="round" stroke-miterlimit="10" x1="1104.9" y1="1975.8" x2="1104.9" y2="1977.2"/>

		<line clip-path="url(#SVGID_2_)" fill="none" stroke="#000000" stroke-width="0.3685" stroke-linecap="round" stroke-linejoin="round" stroke-miterlimit="10" x1="1107.8" y1="1980.1" x2="1123.4" y2="1980.1"/>

		<line clip-path="url(#SVGID_2_)" fill="none" stroke="#000000" stroke-width="0.3685" stroke-linecap="round" stroke-linejoin="round" stroke-miterlimit="10" x1="1126.2" y1="1977.2" x2="1126.2" y2="1975.8"/>

		<line clip-path="url(#SVGID_2_)" fill="none" stroke="#000000" stroke-width="0.3685" stroke-linecap="round" stroke-linejoin="round" stroke-miterlimit="10" x1="1572.7" y1="1975.8" x2="1572.7" y2="1977.2"/>

		<line clip-path="url(#SVGID_2_)" fill="none" stroke="#000000" stroke-width="0.3685" stroke-linecap="round" stroke-linejoin="round" stroke-miterlimit="10" x1="1575.5" y1="1980.1" x2="1683.2" y2="1980.1"/>

		<line clip-path="url(#SVGID_2_)" fill="none" stroke="#000000" stroke-width="0.3685" stroke-linecap="round" stroke-linejoin="round" stroke-miterlimit="10" x1="1686" y1="1977.2" x2="1686" y2="1975.8"/>
	<g clip-path="url(#SVGID_2_)">
		<defs>
			<polyline id="SVGID_3_" points="21,21 2813,21 2813,2813 21,2813 21,21 			"/>
		</defs>
		<clipPath id="SVGID_4_">
			<use xlink:href="#SVGID_3_"  overflow="visible"/>
		</clipPath>

			<path clip-path="url(#SVGID_4_)" fill="none" stroke="#000000" stroke-width="0.3685" stroke-linecap="round" stroke-linejoin="round" stroke-miterlimit="10" d="
			M1727.9,857.7c0.7,0.1,1.1,0.7,1.1,1.4c0,0.1,0,0.2,0,0.3"/>
	</g>
	<g clip-path="url(#SVGID_2_)">
		<defs>
			<polyline id="SVGID_5_" points="21,21 2813,21 2813,2813 21,2813 21,21 			"/>
		</defs>
		<clipPath id="SVGID_6_">
			<use xlink:href="#SVGID_5_"  overflow="visible"/>
		</clipPath>

			<path clip-path="url(#SVGID_6_)" fill="none" stroke="#000000" stroke-width="0.3685" stroke-linecap="round" stroke-linejoin="round" stroke-miterlimit="10" d="
			M1708.7,855.1c0.1-0.7,0.7-1.1,1.4-1.1c0.1,0,0.2,0,0.3,0"/>
	</g>
	<g clip-path="url(#SVGID_2_)">
		<defs>
			<polyline id="SVGID_7_" points="21,21 2813,21 2813,2813 21,2813 21,21 			"/>
		</defs>
		<clipPath id="SVGID_8_">
			<use xlink:href="#SVGID_7_"  overflow="visible"/>
		</clipPath>

			<path clip-path="url(#SVGID_8_)" fill="none" stroke="#000000" stroke-width="0.3685" stroke-linecap="round" stroke-linejoin="round" stroke-miterlimit="10" d="
			M1664.8,1062.2c0-0.4,0-0.8,0.1-1.2"/>
	</g>
	<g clip-path="url(#SVGID_2_)">
		<defs>
			<polyline id="SVGID_9_" points="21,21 2813,21 2813,2813 21,2813 21,21 			"/>
		</defs>
		<clipPath id="SVGID_10_">
			<use xlink:href="#SVGID_9_"  overflow="visible"/>
		</clipPath>

			<path clip-path="url(#SVGID_10_)" fill="none" stroke="#000000" stroke-width="0.3685" stroke-linecap="round" stroke-linejoin="round" stroke-miterlimit="10" d="
			M1592.5,1338c0.8,0,1.4,0.6,1.4,1.4"/>
	</g>
	<g clip-path="url(#SVGID_2_)">
		<defs>
			<polyline id="SVGID_11_" points="21,21 2813,21 2813,2813 21,2813 21,21 			"/>
		</defs>
		<clipPath id="SVGID_12_">
			<use xlink:href="#SVGID_11_"  overflow="visible"/>
		</clipPath>

			<path clip-path="url(#SVGID_12_)" fill="none" stroke="#000000" stroke-width="0.3685" stroke-linecap="round" stroke-linejoin="round" stroke-miterlimit="10" d="
			M1104.9,1339.4c0-0.8,0.6-1.4,1.4-1.4"/>
	</g>
	<g clip-path="url(#SVGID_2_)">
		<defs>
			<polyline id="SVGID_13_" points="21,21 2813,21 2813,2813 21,2813 21,21 			"/>
		</defs>
		<clipPath id="SVGID_14_">
			<use xlink:href="#SVGID_13_"  overflow="visible"/>
		</clipPath>

			<path clip-path="url(#SVGID_14_)" fill="none" stroke="#000000" stroke-width="0.3685" stroke-linecap="round" stroke-linejoin="round" stroke-miterlimit="10" d="
			M1107.8,1980.1c-1.6,0-2.8-1.3-2.8-2.8"/>
	</g>
	<g clip-path="url(#SVGID_2_)">
		<defs>
			<polyline id="SVGID_15_" points="21,21 2813,21 2813,2813 21,2813 21,21 			"/>
		</defs>
		<clipPath id="SVGID_16_">
			<use xlink:href="#SVGID_15_"  overflow="visible"/>
		</clipPath>

			<path clip-path="url(#SVGID_16_)" fill="none" stroke="#000000" stroke-width="0.3685" stroke-linecap="round" stroke-linejoin="round" stroke-miterlimit="10" d="
			M1126.2,1977.2c0,1.6-1.3,2.8-2.8,2.8"/>
	</g>
	<g clip-path="url(#SVGID_2_)">
		<defs>
			<polyline id="SVGID_17_" points="21,21 2813,21 2813,2813 21,2813 21,21 			"/>
		</defs>
		<clipPath id="SVGID_18_">
			<use xlink:href="#SVGID_17_"  overflow="visible"/>
		</clipPath>

			<path clip-path="url(#SVGID_18_)" fill="none" stroke="#000000" stroke-width="0.3685" stroke-linecap="round" stroke-linejoin="round" stroke-miterlimit="10" d="
			M1575.5,1980.1c-1.6,0-2.8-1.3-2.8-2.8"/>
	</g>
	<g clip-path="url(#SVGID_2_)">
		<defs>
			<polyline id="SVGID_19_" points="21,21 2813,21 2813,2813 21,2813 21,21 			"/>
		</defs>
		<clipPath id="SVGID_20_">
			<use xlink:href="#SVGID_19_"  overflow="visible"/>
		</clipPath>

			<path clip-path="url(#SVGID_20_)" fill="none" stroke="#000000" stroke-width="0.3685" stroke-linecap="round" stroke-linejoin="round" stroke-miterlimit="10" d="
			M1686,1977.2c0,1.6-1.3,2.8-2.8,2.8"/>
	</g>
</g>
</svg>
