<?xml version="1.0" encoding="utf-8"?>
<!-- Generator: Adobe Illustrator 21.1.0, SVG Export Plug-In . SVG Version: 6.00 Build 0)  -->
<svg version="1.1" id="Layer_1" xmlns="http://www.w3.org/2000/svg" xmlns:xlink="http://www.w3.org/1999/xlink" x="0px" y="0px"
	 viewBox="0 -60 3000 2000" style="enable-background:new 0 0 2834.6 2834.6;" xml:space="preserve">
<style type="text/css">
	.st0{fill:#FFFFFF;}
	.st1{font-family:'ArialMT';}
	.st2{font-size:4px;}
	.st3{fill:none;stroke:#000000;stroke-width:0.2835;stroke-linecap:round;stroke-linejoin:round;stroke-miterlimit:10;}
	.st4{clip-path:url(#SVGID_2_);}
	.st5{clip-path:url(#SVGID_4_);}
	.st6{clip-path:url(#SVGID_6_);}
	.st7{clip-path:url(#SVGID_8_);}
	.st8{clip-path:url(#SVGID_10_);}

		.st9{clip-path:url(#SVGID_12_);fill:none;stroke:#000000;stroke-width:0.3685;stroke-linecap:round;stroke-linejoin:round;stroke-miterlimit:10;}

		.st10{clip-path:url(#SVGID_14_);fill:none;stroke:#000000;stroke-width:0.3685;stroke-linecap:round;stroke-linejoin:round;stroke-miterlimit:10;}

		.st11{clip-path:url(#SVGID_16_);fill:none;stroke:#000000;stroke-width:0.3685;stroke-linecap:round;stroke-linejoin:round;stroke-miterlimit:10;}

		.st12{clip-path:url(#SVGID_18_);fill:none;stroke:#000000;stroke-width:0.3685;stroke-linecap:round;stroke-linejoin:round;stroke-miterlimit:10;}

		.st13{clip-path:url(#SVGID_20_);fill:none;stroke:#000000;stroke-width:0.3685;stroke-linecap:round;stroke-linejoin:round;stroke-miterlimit:10;}

		.st14{clip-path:url(#SVGID_22_);fill:none;stroke:#000000;stroke-width:0.3685;stroke-linecap:round;stroke-linejoin:round;stroke-miterlimit:10;}

		.st15{clip-path:url(#SVGID_24_);fill:none;stroke:#000000;stroke-width:0.3685;stroke-linecap:round;stroke-linejoin:round;stroke-miterlimit:10;}

		.st16{clip-path:url(#SVGID_26_);fill:none;stroke:#000000;stroke-width:0.3685;stroke-linecap:round;stroke-linejoin:round;stroke-miterlimit:10;}

		.st17{clip-path:url(#SVGID_28_);fill:none;stroke:#000000;stroke-width:0.3685;stroke-linecap:round;stroke-linejoin:round;stroke-miterlimit:10;}

		.st18{clip-path:url(#SVGID_30_);fill:none;stroke:#000000;stroke-width:0.3685;stroke-linecap:round;stroke-linejoin:round;stroke-miterlimit:10;}

		.st19{clip-path:url(#SVGID_32_);fill:none;stroke:#000000;stroke-width:0.3685;stroke-linecap:round;stroke-linejoin:round;stroke-miterlimit:10;}

		.st20{clip-path:url(#SVGID_34_);fill:none;stroke:#000000;stroke-width:0.3685;stroke-linecap:round;stroke-linejoin:round;stroke-miterlimit:10;}

		.st21{clip-path:url(#SVGID_36_);fill:none;stroke:#000000;stroke-width:0.3685;stroke-linecap:round;stroke-linejoin:round;stroke-miterlimit:10;}

		.st22{clip-path:url(#SVGID_38_);fill:none;stroke:#000000;stroke-width:0.3685;stroke-linecap:round;stroke-linejoin:round;stroke-miterlimit:10;}

		.st23{clip-path:url(#SVGID_40_);fill:none;stroke:#000000;stroke-width:0.3685;stroke-linecap:round;stroke-linejoin:round;stroke-miterlimit:10;}

		.st24{clip-path:url(#SVGID_42_);fill:none;stroke:#000000;stroke-width:0.3685;stroke-linecap:round;stroke-linejoin:round;stroke-miterlimit:10;}

		.st25{clip-path:url(#SVGID_44_);fill:none;stroke:#000000;stroke-width:0.3685;stroke-linecap:round;stroke-linejoin:round;stroke-miterlimit:10;}

		.st26{clip-path:url(#SVGID_46_);fill:none;stroke:#000000;stroke-width:0.3685;stroke-linecap:round;stroke-linejoin:round;stroke-miterlimit:10;}

		.st27{clip-path:url(#SVGID_48_);fill:none;stroke:#000000;stroke-width:0.3685;stroke-linecap:round;stroke-linejoin:round;stroke-miterlimit:10;}

		.st28{clip-path:url(#SVGID_50_);fill:none;stroke:#000000;stroke-width:0.3685;stroke-linecap:round;stroke-linejoin:round;stroke-miterlimit:10;}

		.st29{clip-path:url(#SVGID_52_);fill:none;stroke:#000000;stroke-width:0.3685;stroke-linecap:round;stroke-linejoin:round;stroke-miterlimit:10;}

		.st30{clip-path:url(#SVGID_54_);fill:none;stroke:#000000;stroke-width:0.3685;stroke-linecap:round;stroke-linejoin:round;stroke-miterlimit:10;}

		.st31{clip-path:url(#SVGID_56_);fill:none;stroke:#000000;stroke-width:0.3685;stroke-linecap:round;stroke-linejoin:round;stroke-miterlimit:10;}

		.st32{clip-path:url(#SVGID_58_);fill:none;stroke:#000000;stroke-width:0.3685;stroke-linecap:round;stroke-linejoin:round;stroke-miterlimit:10;}

		.st33{clip-path:url(#SVGID_60_);fill:none;stroke:#000000;stroke-width:0.3685;stroke-linecap:round;stroke-linejoin:round;stroke-miterlimit:10;}

		.st34{clip-path:url(#SVGID_62_);fill:none;stroke:#000000;stroke-width:0.3685;stroke-linecap:round;stroke-linejoin:round;stroke-miterlimit:10;}

		.st35{clip-path:url(#SVGID_64_);fill:none;stroke:#000000;stroke-width:0.3685;stroke-linecap:round;stroke-linejoin:round;stroke-miterlimit:10;}

		.st36{clip-path:url(#SVGID_66_);fill:none;stroke:#000000;stroke-width:0.3685;stroke-linecap:round;stroke-linejoin:round;stroke-miterlimit:10;}

		.st37{clip-path:url(#SVGID_68_);fill:none;stroke:#000000;stroke-width:0.3685;stroke-linecap:round;stroke-linejoin:round;stroke-miterlimit:10;}

		.st38{clip-path:url(#SVGID_70_);fill:none;stroke:#000000;stroke-width:0.3685;stroke-linecap:round;stroke-linejoin:round;stroke-miterlimit:10;}
</style>
<text transform="matrix(1 0 0 1 22 2812.0063)" class="st0 st1 st2">GSPublishe</text>
<text transform="matrix(1 0 0 1 43.1 2812.0063)" class="st0 st1 st2">rEngine</text>
<text transform="matrix(1 0 0 1 56.8 2812.0063)" class="st0 st1 st2"> </text>
<text transform="matrix(1 0 0 1 57.92 2812.0063)" class="st0 st1 st2">0.26.100.100</text>
<line class="st3" x1="136.9" y1="2810.6" x2="138" y2="2810.4"/>
<g>
	<g>
		<defs>
			<polyline id="SVGID_1_" points="-1393.8,21.3 4233.2,21.3 4233.2,2813.3 -1393.8,2813.3 -1393.8,21.3 			"/>
		</defs>
		<clipPath id="SVGID_2_">
			<use xlink:href="#SVGID_1_"  style="overflow:visible;"/>
		</clipPath>
		<polyline class="st4" points="282.1,1943.1 432.4,922.7 2407,922.7 2557.3,1943.1 2443.4,1943.1 2243,1031.8 596.4,1031.8
			396,1943.1 282.1,1943.1 		"/>
	</g>
	<g>
		<defs>
			<polyline id="SVGID_3_" points="-1393.8,21.3 4233.2,21.3 4233.2,2813.3 -1393.8,2813.3 -1393.8,21.3 			"/>
		</defs>
		<clipPath id="SVGID_4_">
			<use xlink:href="#SVGID_3_"  style="overflow:visible;"/>
		</clipPath>
		<polyline class="st5" points="486.1,908.5 542.8,908.5 542.8,922.7 486.1,922.7 486.1,908.5 		"/>
	</g>
	<g>
		<defs>
			<polyline id="SVGID_5_" points="-1393.8,21.3 4233.2,21.3 4233.2,2813.3 -1393.8,2813.3 -1393.8,21.3 			"/>
		</defs>
		<clipPath id="SVGID_6_">
			<use xlink:href="#SVGID_5_"  style="overflow:visible;"/>
		</clipPath>
		<polyline class="st6" points="1278,908.5 1561.4,908.5 1561.4,922.7 1278,922.7 1278,908.5 		"/>
	</g>
	<g>
		<defs>
			<polyline id="SVGID_7_" points="-1393.8,21.3 4233.2,21.3 4233.2,2813.3 -1393.8,2813.3 -1393.8,21.3 			"/>
		</defs>
		<clipPath id="SVGID_8_">
			<use xlink:href="#SVGID_7_"  style="overflow:visible;"/>
		</clipPath>
		<polyline class="st7" points="2296.6,908.5 2353.3,908.5 2353.3,922.7 2296.6,922.7 2296.6,908.5 		"/>
	</g>
	<g>
		<defs>
			<polyline id="SVGID_9_" points="-1393.8,21.3 4233.2,21.3 4233.2,2813.3 -1393.8,2813.3 -1393.8,21.3 			"/>
		</defs>
		<clipPath id="SVGID_10_">
			<use xlink:href="#SVGID_9_"  style="overflow:visible;"/>
		</clipPath>
		<polyline class="st8" points="2820,908.5 19.4,908.5 2.4,891.5 2837,891.5 2820,908.5 		"/>
	</g>
	<g>
		<defs>
			<polyline id="SVGID_11_" points="-1393.8,21.3 4233.2,21.3 4233.2,2813.3 -1393.8,2813.3 -1393.8,21.3 			"/>
		</defs>
		<clipPath id="SVGID_12_">
			<use xlink:href="#SVGID_11_"  style="overflow:visible;"/>
		</clipPath>
		<line class="st9" x1="282.1" y1="1943.1" x2="396" y2="1943.1"/>
	</g>
	<g>
		<defs>
			<polyline id="SVGID_13_" points="-1393.8,21.3 4233.2,21.3 4233.2,2813.3 -1393.8,2813.3 -1393.8,21.3 			"/>
		</defs>
		<clipPath id="SVGID_14_">
			<use xlink:href="#SVGID_13_"  style="overflow:visible;"/>
		</clipPath>
		<line class="st10" x1="2343.2" y1="922.7" x2="2243" y2="922.7"/>
	</g>
	<g>
		<defs>
			<polyline id="SVGID_15_" points="-1393.8,21.3 4233.2,21.3 4233.2,2813.3 -1393.8,2813.3 -1393.8,21.3 			"/>
		</defs>
		<clipPath id="SVGID_16_">
			<use xlink:href="#SVGID_15_"  style="overflow:visible;"/>
		</clipPath>
		<line class="st11" x1="496.2" y1="922.7" x2="596.4" y2="922.7"/>
	</g>
	<g>
		<defs>
			<polyline id="SVGID_17_" points="-1393.8,21.3 4233.2,21.3 4233.2,2813.3 -1393.8,2813.3 -1393.8,21.3 			"/>
		</defs>
		<clipPath id="SVGID_18_">
			<use xlink:href="#SVGID_17_"  style="overflow:visible;"/>
		</clipPath>
		<line class="st12" x1="496.2" y1="922.7" x2="432.4" y2="922.7"/>
	</g>
	<g>
		<defs>
			<polyline id="SVGID_19_" points="-1393.8,21.3 4233.2,21.3 4233.2,2813.3 -1393.8,2813.3 -1393.8,21.3 			"/>
		</defs>
		<clipPath id="SVGID_20_">
			<use xlink:href="#SVGID_19_"  style="overflow:visible;"/>
		</clipPath>
		<line class="st13" x1="432.4" y1="922.7" x2="282.1" y2="1943.1"/>
	</g>
	<g>
		<defs>
			<polyline id="SVGID_21_" points="-1393.8,21.3 4233.2,21.3 4233.2,2813.3 -1393.8,2813.3 -1393.8,21.3 			"/>
		</defs>
		<clipPath id="SVGID_22_">
			<use xlink:href="#SVGID_21_"  style="overflow:visible;"/>
		</clipPath>
		<line class="st14" x1="596.4" y1="1031.8" x2="396" y2="1943.1"/>
	</g>
	<g>
		<defs>
			<polyline id="SVGID_23_" points="-1393.8,21.3 4233.2,21.3 4233.2,2813.3 -1393.8,2813.3 -1393.8,21.3 			"/>
		</defs>
		<clipPath id="SVGID_24_">
			<use xlink:href="#SVGID_23_"  style="overflow:visible;"/>
		</clipPath>
		<line class="st15" x1="596.4" y1="922.7" x2="633.1" y2="922.7"/>
	</g>
	<g>
		<defs>
			<polyline id="SVGID_25_" points="-1393.8,21.3 4233.2,21.3 4233.2,2813.3 -1393.8,2813.3 -1393.8,21.3 			"/>
		</defs>
		<clipPath id="SVGID_26_">
			<use xlink:href="#SVGID_25_"  style="overflow:visible;"/>
		</clipPath>
		<line class="st16" x1="596.4" y1="1031.8" x2="633.1" y2="1031.8"/>
	</g>
	<g>
		<defs>
			<polyline id="SVGID_27_" points="-1393.8,21.3 4233.2,21.3 4233.2,2813.3 -1393.8,2813.3 -1393.8,21.3 			"/>
		</defs>
		<clipPath id="SVGID_28_">
			<use xlink:href="#SVGID_27_"  style="overflow:visible;"/>
		</clipPath>
		<line class="st17" x1="633.1" y1="1031.8" x2="2206.3" y2="1031.8"/>
	</g>
	<g>
		<defs>
			<polyline id="SVGID_29_" points="-1393.8,21.3 4233.2,21.3 4233.2,2813.3 -1393.8,2813.3 -1393.8,21.3 			"/>
		</defs>
		<clipPath id="SVGID_30_">
			<use xlink:href="#SVGID_29_"  style="overflow:visible;"/>
		</clipPath>
		<line class="st18" x1="633.1" y1="922.7" x2="2206.3" y2="922.7"/>
	</g>
	<g>
		<defs>
			<polyline id="SVGID_31_" points="-1393.8,21.3 4233.2,21.3 4233.2,2813.3 -1393.8,2813.3 -1393.8,21.3 			"/>
		</defs>
		<clipPath id="SVGID_32_">
			<use xlink:href="#SVGID_31_"  style="overflow:visible;"/>
		</clipPath>
		<line class="st19" x1="2206.3" y1="1031.8" x2="2243" y2="1031.8"/>
	</g>
	<g>
		<defs>
			<polyline id="SVGID_33_" points="-1393.8,21.3 4233.2,21.3 4233.2,2813.3 -1393.8,2813.3 -1393.8,21.3 			"/>
		</defs>
		<clipPath id="SVGID_34_">
			<use xlink:href="#SVGID_33_"  style="overflow:visible;"/>
		</clipPath>
		<line class="st20" x1="2206.3" y1="922.7" x2="2243" y2="922.7"/>
	</g>
	<g>
		<defs>
			<polyline id="SVGID_35_" points="-1393.8,21.3 4233.2,21.3 4233.2,2813.3 -1393.8,2813.3 -1393.8,21.3 			"/>
		</defs>
		<clipPath id="SVGID_36_">
			<use xlink:href="#SVGID_35_"  style="overflow:visible;"/>
		</clipPath>
		<line class="st21" x1="2243" y1="1031.8" x2="2443.4" y2="1943.1"/>
	</g>
	<g>
		<defs>
			<polyline id="SVGID_37_" points="-1393.8,21.3 4233.2,21.3 4233.2,2813.3 -1393.8,2813.3 -1393.8,21.3 			"/>
		</defs>
		<clipPath id="SVGID_38_">
			<use xlink:href="#SVGID_37_"  style="overflow:visible;"/>
		</clipPath>
		<line class="st22" x1="2343.2" y1="922.7" x2="2407" y2="922.7"/>
	</g>
	<g>
		<defs>
			<polyline id="SVGID_39_" points="-1393.8,21.3 4233.2,21.3 4233.2,2813.3 -1393.8,2813.3 -1393.8,21.3 			"/>
		</defs>
		<clipPath id="SVGID_40_">
			<use xlink:href="#SVGID_39_"  style="overflow:visible;"/>
		</clipPath>
		<line class="st23" x1="2407" y1="922.7" x2="2557.3" y2="1943.1"/>
	</g>
	<g>
		<defs>
			<polyline id="SVGID_41_" points="-1393.8,21.3 4233.2,21.3 4233.2,2813.3 -1393.8,2813.3 -1393.8,21.3 			"/>
		</defs>
		<clipPath id="SVGID_42_">
			<use xlink:href="#SVGID_41_"  style="overflow:visible;"/>
		</clipPath>
		<line class="st24" x1="486.1" y1="922.7" x2="486.1" y2="908.5"/>
	</g>
	<g>
		<defs>
			<polyline id="SVGID_43_" points="-1393.8,21.3 4233.2,21.3 4233.2,2813.3 -1393.8,2813.3 -1393.8,21.3 			"/>
		</defs>
		<clipPath id="SVGID_44_">
			<use xlink:href="#SVGID_43_"  style="overflow:visible;"/>
		</clipPath>
		<line class="st25" x1="486.1" y1="908.5" x2="542.8" y2="908.5"/>
	</g>
	<g>
		<defs>
			<polyline id="SVGID_45_" points="-1393.8,21.3 4233.2,21.3 4233.2,2813.3 -1393.8,2813.3 -1393.8,21.3 			"/>
		</defs>
		<clipPath id="SVGID_46_">
			<use xlink:href="#SVGID_45_"  style="overflow:visible;"/>
		</clipPath>
		<line class="st26" x1="542.8" y1="908.5" x2="542.8" y2="922.7"/>
	</g>
	<g>
		<defs>
			<polyline id="SVGID_47_" points="-1393.8,21.3 4233.2,21.3 4233.2,2813.3 -1393.8,2813.3 -1393.8,21.3 			"/>
		</defs>
		<clipPath id="SVGID_48_">
			<use xlink:href="#SVGID_47_"  style="overflow:visible;"/>
		</clipPath>
		<line class="st27" x1="2296.6" y1="922.7" x2="2296.6" y2="908.5"/>
	</g>
	<g>
		<defs>
			<polyline id="SVGID_49_" points="-1393.8,21.3 4233.2,21.3 4233.2,2813.3 -1393.8,2813.3 -1393.8,21.3 			"/>
		</defs>
		<clipPath id="SVGID_50_">
			<use xlink:href="#SVGID_49_"  style="overflow:visible;"/>
		</clipPath>
		<line class="st28" x1="2296.6" y1="908.5" x2="2353.3" y2="908.5"/>
	</g>
	<g>
		<defs>
			<polyline id="SVGID_51_" points="-1393.8,21.3 4233.2,21.3 4233.2,2813.3 -1393.8,2813.3 -1393.8,21.3 			"/>
		</defs>
		<clipPath id="SVGID_52_">
			<use xlink:href="#SVGID_51_"  style="overflow:visible;"/>
		</clipPath>
		<line class="st29" x1="2353.3" y1="908.5" x2="2353.3" y2="922.7"/>
	</g>
	<g>
		<defs>
			<polyline id="SVGID_53_" points="-1393.8,21.3 4233.2,21.3 4233.2,2813.3 -1393.8,2813.3 -1393.8,21.3 			"/>
		</defs>
		<clipPath id="SVGID_54_">
			<use xlink:href="#SVGID_53_"  style="overflow:visible;"/>
		</clipPath>
		<line class="st30" x1="542.8" y1="908.5" x2="1419.7" y2="908.5"/>
	</g>
	<g>
		<defs>
			<polyline id="SVGID_55_" points="-1393.8,21.3 4233.2,21.3 4233.2,2813.3 -1393.8,2813.3 -1393.8,21.3 			"/>
		</defs>
		<clipPath id="SVGID_56_">
			<use xlink:href="#SVGID_55_"  style="overflow:visible;"/>
		</clipPath>
		<line class="st31" x1="1419.7" y1="908.5" x2="2820" y2="908.5"/>
	</g>
	<g>
		<defs>
			<polyline id="SVGID_57_" points="-1393.8,21.3 4233.2,21.3 4233.2,2813.3 -1393.8,2813.3 -1393.8,21.3 			"/>
		</defs>
		<clipPath id="SVGID_58_">
			<use xlink:href="#SVGID_57_"  style="overflow:visible;"/>
		</clipPath>
		<line class="st32" x1="19.4" y1="908.5" x2="486.1" y2="908.5"/>
	</g>
	<g>
		<defs>
			<polyline id="SVGID_59_" points="-1393.8,21.3 4233.2,21.3 4233.2,2813.3 -1393.8,2813.3 -1393.8,21.3 			"/>
		</defs>
		<clipPath id="SVGID_60_">
			<use xlink:href="#SVGID_59_"  style="overflow:visible;"/>
		</clipPath>
		<line class="st33" x1="2.4" y1="891.5" x2="19.4" y2="908.5"/>
	</g>
	<g>
		<defs>
			<polyline id="SVGID_61_" points="-1393.8,21.3 4233.2,21.3 4233.2,2813.3 -1393.8,2813.3 -1393.8,21.3 			"/>
		</defs>
		<clipPath id="SVGID_62_">
			<use xlink:href="#SVGID_61_"  style="overflow:visible;"/>
		</clipPath>
		<line class="st34" x1="2837" y1="891.5" x2="2.4" y2="891.5"/>
	</g>
	<g>
		<defs>
			<polyline id="SVGID_63_" points="-1393.8,21.3 4233.2,21.3 4233.2,2813.3 -1393.8,2813.3 -1393.8,21.3 			"/>
		</defs>
		<clipPath id="SVGID_64_">
			<use xlink:href="#SVGID_63_"  style="overflow:visible;"/>
		</clipPath>
		<line class="st35" x1="2837" y1="891.5" x2="2820" y2="908.5"/>
	</g>
	<g>
		<defs>
			<polyline id="SVGID_65_" points="-1393.8,21.3 4233.2,21.3 4233.2,2813.3 -1393.8,2813.3 -1393.8,21.3 			"/>
		</defs>
		<clipPath id="SVGID_66_">
			<use xlink:href="#SVGID_65_"  style="overflow:visible;"/>
		</clipPath>
		<line class="st36" x1="1278" y1="908.5" x2="1278" y2="922.7"/>
	</g>
	<g>
		<defs>
			<polyline id="SVGID_67_" points="-1393.8,21.3 4233.2,21.3 4233.2,2813.3 -1393.8,2813.3 -1393.8,21.3 			"/>
		</defs>
		<clipPath id="SVGID_68_">
			<use xlink:href="#SVGID_67_"  style="overflow:visible;"/>
		</clipPath>
		<line class="st37" x1="1561.4" y1="908.5" x2="1561.4" y2="922.7"/>
	</g>
	<g>
		<defs>
			<polyline id="SVGID_69_" points="-1393.8,21.3 4233.2,21.3 4233.2,2813.3 -1393.8,2813.3 -1393.8,21.3 			"/>
		</defs>
		<clipPath id="SVGID_70_">
			<use xlink:href="#SVGID_69_"  style="overflow:visible;"/>
		</clipPath>
		<line class="st38" x1="2443.4" y1="1943.1" x2="2557.3" y2="1943.1"/>
	</g>
</g>
</svg>
