<?xml version="1.0" encoding="utf-8"?>
<!-- Generator: Adobe Illustrator 18.1.0, SVG Export Plug-In . SVG Version: 6.00 Build 0)  -->
<svg version="1.1" id="Layer_1" xmlns="http://www.w3.org/2000/svg" xmlns:xlink="http://www.w3.org/1999/xlink" x="0px" y="0px"
	 viewBox="0 0 3000 2000" enable-background="new 0 0 2834.6 2834.6" xml:space="preserve">
<text transform="matrix(1 0 0 1 22 2812.0063)"><tspan x="0" y="0" fill="#FFFFFF" font-family="'ArialMT'" font-size="4">GSPublishe</tspan><tspan x="21.1" y="0" fill="#FFFFFF" font-family="'ArialMT'" font-size="4">rEngine</tspan><tspan x="34.8" y="0" fill="#FFFFFF" font-family="'ArialMT'" font-size="4"> </tspan></text>
<text transform="matrix(1 0 0 1 57.92 2812.0063)" fill="#FFFFFF" font-family="'ArialMT'" font-size="4">0.33.100.100</text>
<line fill="none" stroke="#000000" stroke-width="0.2835" stroke-linecap="round" stroke-linejoin="round" stroke-miterlimit="10" x1="151.5" y1="2810.6" x2="152.6" y2="2810.4"/>
<g>
	<defs>
		<polyline id="SVGID_1_" points="21,21 2813,21 2813,2813 21,2813 21,21 		"/>
	</defs>
	<clipPath id="SVGID_2_">
		<use xlink:href="#SVGID_1_"  overflow="visible"/>
	</clipPath>
	<polyline clip-path="url(#SVGID_2_)" fill-rule="evenodd" clip-rule="evenodd" points="558.3,564 562.2,564.5 565.9,565.9
		569.1,568.1 571.7,571 573.5,574.5 574.5,578.3 574.5,582.3 573.5,586.1 571.7,589.6 569.1,592.5 565.9,594.7 562.2,596.1
		558.3,596.6 554.4,596.1 550.7,594.7 547.5,592.5 544.9,589.6 543,586.1 542.1,582.3 542.1,578.3 543,574.5 544.9,571 547.5,568.1
		550.7,565.9 554.4,564.5 558.3,564 	"/>
	<polyline clip-path="url(#SVGID_2_)" fill-rule="evenodd" clip-rule="evenodd" fill="#FFFFFF" points="268.4,2536.2 282.6,2536.2
		282.6,2541.9 268.4,2541.9 268.4,2536.2 	"/>
	<polyline clip-path="url(#SVGID_2_)" fill-rule="evenodd" clip-rule="evenodd" fill="#FFFFFF" points="833.9,2536.2 848.1,2536.2
		848.1,2541.9 833.9,2541.9 833.9,2536.2 	"/>
	<polyline clip-path="url(#SVGID_2_)" fill-rule="evenodd" clip-rule="evenodd" fill="#FFFFFF" points="826.2,2536.2 660,863
		463,798.1 290.4,2536.2 260.6,2536.2 411.1,781 291.8,741.8 359.1,537.1 334.4,521.6 337.1,513.5 331.7,511.7 335.2,500.9
		340.6,502.7 343.3,494.6 372.4,496.8 439.8,292.1 1064.4,497.7 916.5,947.4 714,880.7 855.9,2536.2 826.2,2536.2 	"/>
	<polyline clip-path="url(#SVGID_2_)" fill-rule="evenodd" clip-rule="evenodd" points="328,1957.9 331.2,1958.4 334.1,1959.7
		336.5,1961.9 338.3,1964.6 339.2,1967.7 339.2,1970.9 338.3,1974 336.5,1976.7 334.1,1978.8 331.2,1980.2 328,1980.6 324.8,1980.2
		321.8,1978.8 319.4,1976.7 317.7,1974 316.7,1970.9 316.7,1967.7 317.7,1964.6 319.4,1961.9 321.8,1959.7 324.8,1958.4 328,1957.9
			"/>
	<polyline clip-path="url(#SVGID_2_)" fill-rule="evenodd" clip-rule="evenodd" points="788.6,1957.9 791.8,1958.4 794.7,1959.7
		797.2,1961.9 798.9,1964.6 799.8,1967.7 799.8,1970.9 798.9,1974 797.2,1976.7 794.7,1978.8 791.8,1980.2 788.6,1980.6
		785.4,1980.2 782.5,1978.8 780,1976.7 778.3,1974 777.4,1970.9 777.4,1967.7 778.3,1964.6 780,1961.9 782.5,1959.7 785.4,1958.4
		788.6,1957.9 	"/>
	<polyline clip-path="url(#SVGID_2_)" fill-rule="evenodd" clip-rule="evenodd" points="558.3,564 562.2,564.5 565.9,565.9
		569.1,568.1 571.7,571 573.5,574.5 574.5,578.3 574.5,582.3 573.5,586.1 571.7,589.6 569.1,592.5 565.9,594.7 562.2,596.1
		558.3,596.6 554.4,596.1 550.7,594.7 547.5,592.5 544.9,589.6 543,586.1 542.1,582.3 542.1,578.3 543,574.5 544.9,571 547.5,568.1
		550.7,565.9 554.4,564.5 558.3,564 	"/>
	<polyline clip-path="url(#SVGID_2_)" fill-rule="evenodd" clip-rule="evenodd" fill="#FFFFFF" points="268.4,2536.2 282.6,2536.2
		282.6,2541.9 268.4,2541.9 268.4,2536.2 	"/>
	<polyline clip-path="url(#SVGID_2_)" fill-rule="evenodd" clip-rule="evenodd" fill="#FFFFFF" points="833.9,2536.2 848.1,2536.2
		848.1,2541.9 833.9,2541.9 833.9,2536.2 	"/>
	<polyline clip-path="url(#SVGID_2_)" fill-rule="evenodd" clip-rule="evenodd" fill="#FFFFFF" points="2084.5,2536.2
		2098.7,2536.2 2098.7,2541.9 2084.5,2541.9 2084.5,2536.2 	"/>
	<polyline clip-path="url(#SVGID_2_)" fill-rule="evenodd" clip-rule="evenodd" fill="#FFFFFF" points="2538.1,2536.2
		2552.3,2536.2 2552.3,2541.9 2538.1,2541.9 2538.1,2536.2 	"/>
	<polyline clip-path="url(#SVGID_2_)" fill-rule="evenodd" clip-rule="evenodd" fill="#FFFFFF" points="2531,2536.2 2405.6,1555.6
		2377.3,1601.6 2236.4,1514.9 2105.8,2536.2 2077.4,2536.2 2187.5,1484.8 1900.5,1308.2 2096.6,989.5 2573.4,1282.9 2486.5,1424.1
		2506.9,1445 2502.4,1452.2 2507.3,1455.2 2501.3,1464.9 2496.5,1461.9 2492,1469.1 2464.2,1460.3 2449.3,1484.5 2559.3,2536.2
		2531,2536.2 	"/>
	<polyline clip-path="url(#SVGID_2_)" fill-rule="evenodd" clip-rule="evenodd" points="2318.4,1329.4 2322.3,1329.8 2326,1331.2
		2329.2,1333.5 2331.8,1336.4 2333.6,1339.9 2334.6,1343.7 2334.6,1347.6 2333.6,1351.4 2331.8,1354.9 2329.2,1357.9 2326,1360.1
		2322.3,1361.5 2318.4,1362 2314.5,1361.5 2310.8,1360.1 2307.6,1357.9 2305,1354.9 2303.2,1351.4 2302.2,1347.6 2302.2,1343.7
		2303.2,1339.9 2305,1336.4 2307.6,1333.5 2310.8,1331.2 2314.5,1329.8 2318.4,1329.4 	"/>
	<polyline clip-path="url(#SVGID_2_)" fill-rule="evenodd" clip-rule="evenodd" points="2141.1,2099.7 2144.3,2100.1 2147.2,2101.5
		2149.6,2103.6 2151.4,2106.3 2152.3,2109.4 2152.3,2112.6 2151.4,2115.7 2149.6,2118.4 2147.2,2120.6 2144.3,2121.9 2141.1,2122.4
		2137.9,2121.9 2134.9,2120.6 2132.5,2118.4 2130.7,2115.7 2129.8,2112.6 2129.8,2109.4 2130.7,2106.3 2132.5,2103.6 2134.9,2101.5
		2137.9,2100.1 2141.1,2099.7 	"/>
	<polyline clip-path="url(#SVGID_2_)" fill-rule="evenodd" clip-rule="evenodd" points="2495.7,2099.7 2498.9,2100.1 2501.9,2101.5
		2504.3,2103.6 2506,2106.3 2506.9,2109.4 2506.9,2112.6 2506,2115.7 2504.3,2118.4 2501.9,2120.6 2498.9,2121.9 2495.7,2122.4
		2492.5,2121.9 2489.6,2120.6 2487.2,2118.4 2485.4,2115.7 2484.5,2112.6 2484.5,2109.4 2485.4,2106.3 2487.2,2103.6 2489.6,2101.5
		2492.5,2100.1 2495.7,2099.7 	"/>

		<line clip-path="url(#SVGID_2_)" fill="none" stroke="#000000" stroke-width="0.3685" stroke-linecap="round" stroke-linejoin="round" stroke-miterlimit="10" x1="1064.4" y1="497.7" x2="916.5" y2="947.4"/>

		<line clip-path="url(#SVGID_2_)" fill="none" stroke="#000000" stroke-width="0.3685" stroke-linecap="round" stroke-linejoin="round" stroke-miterlimit="10" x1="916.5" y1="947.4" x2="714" y2="880.7"/>

		<line clip-path="url(#SVGID_2_)" fill="none" stroke="#000000" stroke-width="0.3685" stroke-linecap="round" stroke-linejoin="round" stroke-miterlimit="10" x1="291.8" y1="741.8" x2="439.8" y2="292.1"/>

		<line clip-path="url(#SVGID_2_)" fill="none" stroke="#000000" stroke-width="0.3685" stroke-linecap="round" stroke-linejoin="round" stroke-miterlimit="10" x1="439.8" y1="292.1" x2="1064.4" y2="497.7"/>

		<line clip-path="url(#SVGID_2_)" fill="none" stroke="#000000" stroke-width="0.3685" stroke-linecap="round" stroke-linejoin="round" stroke-miterlimit="10" x1="411.1" y1="781" x2="291.8" y2="741.8"/>

		<line clip-path="url(#SVGID_2_)" fill="none" stroke="#000000" stroke-width="0.3685" stroke-linecap="round" stroke-linejoin="round" stroke-miterlimit="10" x1="660" y1="863" x2="463" y2="798.1"/>

		<line clip-path="url(#SVGID_2_)" fill="none" stroke="#000000" stroke-width="0.3685" stroke-linecap="round" stroke-linejoin="round" stroke-miterlimit="10" x1="338.8" y1="508.1" x2="343.3" y2="494.6"/>

		<line clip-path="url(#SVGID_2_)" fill="none" stroke="#000000" stroke-width="0.3685" stroke-linecap="round" stroke-linejoin="round" stroke-miterlimit="10" x1="338.8" y1="508.1" x2="334.4" y2="521.6"/>

		<line clip-path="url(#SVGID_2_)" fill="none" stroke="#000000" stroke-width="0.3685" stroke-linecap="round" stroke-linejoin="round" stroke-miterlimit="10" x1="372.4" y1="496.8" x2="343.3" y2="494.6"/>

		<line clip-path="url(#SVGID_2_)" fill="none" stroke="#000000" stroke-width="0.3685" stroke-linecap="round" stroke-linejoin="round" stroke-miterlimit="10" x1="359.1" y1="537.1" x2="334.4" y2="521.6"/>

		<line clip-path="url(#SVGID_2_)" fill="none" stroke="#000000" stroke-width="0.3685" stroke-linecap="round" stroke-linejoin="round" stroke-miterlimit="10" x1="333.4" y1="506.3" x2="335.2" y2="500.9"/>

		<line clip-path="url(#SVGID_2_)" fill="none" stroke="#000000" stroke-width="0.3685" stroke-linecap="round" stroke-linejoin="round" stroke-miterlimit="10" x1="333.4" y1="506.3" x2="331.7" y2="511.7"/>

		<line clip-path="url(#SVGID_2_)" fill="none" stroke="#000000" stroke-width="0.3685" stroke-linecap="round" stroke-linejoin="round" stroke-miterlimit="10" x1="331.7" y1="511.7" x2="337.1" y2="513.5"/>

		<line clip-path="url(#SVGID_2_)" fill="none" stroke="#000000" stroke-width="0.3685" stroke-linecap="round" stroke-linejoin="round" stroke-miterlimit="10" x1="335.2" y1="500.9" x2="340.6" y2="502.7"/>

		<line clip-path="url(#SVGID_2_)" fill="none" stroke="#000000" stroke-width="0.3685" stroke-linecap="round" stroke-linejoin="round" stroke-miterlimit="10" x1="260.6" y1="2536.2" x2="411.1" y2="781"/>

		<line clip-path="url(#SVGID_2_)" fill="none" stroke="#000000" stroke-width="0.3685" stroke-linecap="round" stroke-linejoin="round" stroke-miterlimit="10" x1="855.9" y1="2536.2" x2="714" y2="880.7"/>

		<line clip-path="url(#SVGID_2_)" fill="none" stroke="#000000" stroke-width="0.3685" stroke-linecap="round" stroke-linejoin="round" stroke-miterlimit="10" x1="855.9" y1="2536.2" x2="826.2" y2="2536.2"/>

		<line clip-path="url(#SVGID_2_)" fill="none" stroke="#000000" stroke-width="0.3685" stroke-linecap="round" stroke-linejoin="round" stroke-miterlimit="10" x1="260.6" y1="2536.2" x2="290.4" y2="2536.2"/>

		<line clip-path="url(#SVGID_2_)" fill="none" stroke="#000000" stroke-width="0.3685" stroke-linecap="round" stroke-linejoin="round" stroke-miterlimit="10" x1="660" y1="863" x2="826.2" y2="2536.2"/>

		<line clip-path="url(#SVGID_2_)" fill="none" stroke="#000000" stroke-width="0.3685" stroke-linecap="round" stroke-linejoin="round" stroke-miterlimit="10" x1="275.5" y1="2541.9" x2="282.6" y2="2541.9"/>

		<line clip-path="url(#SVGID_2_)" fill="none" stroke="#000000" stroke-width="0.3685" stroke-linecap="round" stroke-linejoin="round" stroke-miterlimit="10" x1="275.5" y1="2541.9" x2="268.4" y2="2541.9"/>

		<line clip-path="url(#SVGID_2_)" fill="none" stroke="#000000" stroke-width="0.3685" stroke-linecap="round" stroke-linejoin="round" stroke-miterlimit="10" x1="268.4" y1="2541.9" x2="268.4" y2="2536.2"/>

		<line clip-path="url(#SVGID_2_)" fill="none" stroke="#000000" stroke-width="0.3685" stroke-linecap="round" stroke-linejoin="round" stroke-miterlimit="10" x1="282.6" y1="2541.9" x2="282.6" y2="2536.2"/>

		<line clip-path="url(#SVGID_2_)" fill="none" stroke="#000000" stroke-width="0.3685" stroke-linecap="round" stroke-linejoin="round" stroke-miterlimit="10" x1="841" y1="2541.9" x2="848.1" y2="2541.9"/>

		<line clip-path="url(#SVGID_2_)" fill="none" stroke="#000000" stroke-width="0.3685" stroke-linecap="round" stroke-linejoin="round" stroke-miterlimit="10" x1="841" y1="2541.9" x2="833.9" y2="2541.9"/>

		<line clip-path="url(#SVGID_2_)" fill="none" stroke="#000000" stroke-width="0.3685" stroke-linecap="round" stroke-linejoin="round" stroke-miterlimit="10" x1="833.9" y1="2541.9" x2="833.9" y2="2536.2"/>

		<line clip-path="url(#SVGID_2_)" fill="none" stroke="#000000" stroke-width="0.3685" stroke-linecap="round" stroke-linejoin="round" stroke-miterlimit="10" x1="848.1" y1="2541.9" x2="848.1" y2="2536.2"/>

		<line clip-path="url(#SVGID_2_)" fill="none" stroke="#000000" stroke-width="0.3685" stroke-linecap="round" stroke-linejoin="round" stroke-miterlimit="10" x1="2096.6" y1="989.5" x2="1900.5" y2="1308.2"/>

		<line clip-path="url(#SVGID_2_)" fill="none" stroke="#000000" stroke-width="0.3685" stroke-linecap="round" stroke-linejoin="round" stroke-miterlimit="10" x1="2096.6" y1="989.5" x2="2573.4" y2="1282.9"/>

		<line clip-path="url(#SVGID_2_)" fill="none" stroke="#000000" stroke-width="0.3685" stroke-linecap="round" stroke-linejoin="round" stroke-miterlimit="10" x1="2573.4" y1="1282.9" x2="2449.3" y2="1484.5"/>

		<line clip-path="url(#SVGID_2_)" fill="none" stroke="#000000" stroke-width="0.3685" stroke-linecap="round" stroke-linejoin="round" stroke-miterlimit="10" x1="1900.5" y1="1308.2" x2="2187.5" y2="1484.8"/>

		<line clip-path="url(#SVGID_2_)" fill="none" stroke="#000000" stroke-width="0.3685" stroke-linecap="round" stroke-linejoin="round" stroke-miterlimit="10" x1="2531" y1="2536.2" x2="2559.3" y2="2536.2"/>

		<line clip-path="url(#SVGID_2_)" fill="none" stroke="#000000" stroke-width="0.3685" stroke-linecap="round" stroke-linejoin="round" stroke-miterlimit="10" x1="2105.8" y1="2536.2" x2="2077.4" y2="2536.2"/>

		<line clip-path="url(#SVGID_2_)" fill="none" stroke="#000000" stroke-width="0.3685" stroke-linecap="round" stroke-linejoin="round" stroke-miterlimit="10" x1="2077.4" y1="2536.2" x2="2187.5" y2="1484.8"/>

		<line clip-path="url(#SVGID_2_)" fill="none" stroke="#000000" stroke-width="0.3685" stroke-linecap="round" stroke-linejoin="round" stroke-miterlimit="10" x1="2559.3" y1="2536.2" x2="2449.3" y2="1484.5"/>

		<line clip-path="url(#SVGID_2_)" fill="none" stroke="#000000" stroke-width="0.3685" stroke-linecap="round" stroke-linejoin="round" stroke-miterlimit="10" x1="2236.4" y1="1514.9" x2="2105.8" y2="2536.2"/>

		<line clip-path="url(#SVGID_2_)" fill="none" stroke="#000000" stroke-width="0.3685" stroke-linecap="round" stroke-linejoin="round" stroke-miterlimit="10" x1="2405.6" y1="1555.6" x2="2531" y2="2536.2"/>

		<line clip-path="url(#SVGID_2_)" fill="none" stroke="#000000" stroke-width="0.3685" stroke-linecap="round" stroke-linejoin="round" stroke-miterlimit="10" x1="2236.4" y1="1514.9" x2="2377.3" y2="1601.6"/>

		<line clip-path="url(#SVGID_2_)" fill="none" stroke="#000000" stroke-width="0.3685" stroke-linecap="round" stroke-linejoin="round" stroke-miterlimit="10" x1="2405.6" y1="1555.6" x2="2377.3" y2="1601.6"/>

		<line clip-path="url(#SVGID_2_)" fill="none" stroke="#000000" stroke-width="0.3685" stroke-linecap="round" stroke-linejoin="round" stroke-miterlimit="10" x1="2091.6" y1="2541.9" x2="2098.7" y2="2541.9"/>

		<line clip-path="url(#SVGID_2_)" fill="none" stroke="#000000" stroke-width="0.3685" stroke-linecap="round" stroke-linejoin="round" stroke-miterlimit="10" x1="2098.7" y1="2541.9" x2="2098.7" y2="2536.2"/>

		<line clip-path="url(#SVGID_2_)" fill="none" stroke="#000000" stroke-width="0.3685" stroke-linecap="round" stroke-linejoin="round" stroke-miterlimit="10" x1="2091.6" y1="2541.9" x2="2084.5" y2="2541.9"/>

		<line clip-path="url(#SVGID_2_)" fill="none" stroke="#000000" stroke-width="0.3685" stroke-linecap="round" stroke-linejoin="round" stroke-miterlimit="10" x1="2084.5" y1="2541.9" x2="2084.5" y2="2536.2"/>

		<line clip-path="url(#SVGID_2_)" fill="none" stroke="#000000" stroke-width="0.3685" stroke-linecap="round" stroke-linejoin="round" stroke-miterlimit="10" x1="2545.2" y1="2541.9" x2="2552.3" y2="2541.9"/>

		<line clip-path="url(#SVGID_2_)" fill="none" stroke="#000000" stroke-width="0.3685" stroke-linecap="round" stroke-linejoin="round" stroke-miterlimit="10" x1="2545.2" y1="2541.9" x2="2538.1" y2="2541.9"/>

		<line clip-path="url(#SVGID_2_)" fill="none" stroke="#000000" stroke-width="0.3685" stroke-linecap="round" stroke-linejoin="round" stroke-miterlimit="10" x1="2538.1" y1="2541.9" x2="2538.1" y2="2536.2"/>

		<line clip-path="url(#SVGID_2_)" fill="none" stroke="#000000" stroke-width="0.3685" stroke-linecap="round" stroke-linejoin="round" stroke-miterlimit="10" x1="2552.3" y1="2541.9" x2="2552.3" y2="2536.2"/>

		<line clip-path="url(#SVGID_2_)" fill="none" stroke="#000000" stroke-width="0.3685" stroke-linecap="round" stroke-linejoin="round" stroke-miterlimit="10" x1="2499.5" y1="1457.1" x2="2492" y2="1469.1"/>

		<line clip-path="url(#SVGID_2_)" fill="none" stroke="#000000" stroke-width="0.3685" stroke-linecap="round" stroke-linejoin="round" stroke-miterlimit="10" x1="2499.5" y1="1457.1" x2="2506.9" y2="1445"/>

		<line clip-path="url(#SVGID_2_)" fill="none" stroke="#000000" stroke-width="0.3685" stroke-linecap="round" stroke-linejoin="round" stroke-miterlimit="10" x1="2464.2" y1="1460.3" x2="2492" y2="1469.1"/>

		<line clip-path="url(#SVGID_2_)" fill="none" stroke="#000000" stroke-width="0.3685" stroke-linecap="round" stroke-linejoin="round" stroke-miterlimit="10" x1="2486.5" y1="1424.1" x2="2506.9" y2="1445"/>

		<line clip-path="url(#SVGID_2_)" fill="none" stroke="#000000" stroke-width="0.3685" stroke-linecap="round" stroke-linejoin="round" stroke-miterlimit="10" x1="2504.3" y1="1460" x2="2501.3" y2="1464.9"/>

		<line clip-path="url(#SVGID_2_)" fill="none" stroke="#000000" stroke-width="0.3685" stroke-linecap="round" stroke-linejoin="round" stroke-miterlimit="10" x1="2504.3" y1="1460" x2="2507.3" y2="1455.2"/>

		<line clip-path="url(#SVGID_2_)" fill="none" stroke="#000000" stroke-width="0.3685" stroke-linecap="round" stroke-linejoin="round" stroke-miterlimit="10" x1="2507.3" y1="1455.2" x2="2502.4" y2="1452.2"/>

		<line clip-path="url(#SVGID_2_)" fill="none" stroke="#000000" stroke-width="0.3685" stroke-linecap="round" stroke-linejoin="round" stroke-miterlimit="10" x1="2501.3" y1="1464.9" x2="2496.5" y2="1461.9"/>

		<line clip-path="url(#SVGID_2_)" fill="none" stroke="#000000" stroke-width="0.3685" stroke-linecap="round" stroke-linejoin="round" stroke-miterlimit="10" x1="2486.5" y1="1424.1" x2="2464.2" y2="1460.3"/>

		<line clip-path="url(#SVGID_2_)" fill="none" stroke="#000000" stroke-width="0.3685" stroke-linecap="round" stroke-linejoin="round" stroke-miterlimit="10" x1="463" y1="798.1" x2="290.4" y2="2536.2"/>
</g>
</svg>
