<?xml version="1.0" encoding="utf-8"?>
<!-- Generator: Adobe Illustrator 21.1.0, SVG Export Plug-In . SVG Version: 6.00 Build 0)  -->
<svg version="1.1" id="Layer_1" xmlns="http://www.w3.org/2000/svg" xmlns:xlink="http://www.w3.org/1999/xlink" x="0px" y="0px"
	 viewBox="0 0 2834.6 2834.6" style="enable-background:new 0 0 2834.6 2834.6;" xml:space="preserve">
<style type="text/css">
	.st0{fill:#FFFFFF;}
	.st1{font-family:'ArialMT';}
	.st2{font-size:4px;}
	.st3{fill:none;stroke:#000000;stroke-width:0.2835;stroke-linecap:round;stroke-linejoin:round;stroke-miterlimit:10;}
	.st4{clip-path:url(#SVGID_2_);}
	.st5{clip-path:url(#SVGID_4_);fill:#FFFFFF;}
	.st6{clip-path:url(#SVGID_6_);fill:#FFFFFF;}
	.st7{clip-path:url(#SVGID_8_);}
	.st8{clip-path:url(#SVGID_10_);fill:#FFFFFF;}
	.st9{clip-path:url(#SVGID_12_);fill:#FFFFFF;}
	.st10{clip-path:url(#SVGID_14_);fill:#FFFFFF;}
	.st11{clip-path:url(#SVGID_16_);}
	.st12{clip-path:url(#SVGID_18_);}
	.st13{clip-path:url(#SVGID_20_);}
	.st14{clip-path:url(#SVGID_22_);}
	.st15{clip-path:url(#SVGID_24_);}
	.st16{clip-path:url(#SVGID_26_);fill:#FFFFFF;}
	.st17{clip-path:url(#SVGID_28_);fill:#FFFFFF;}
	.st18{clip-path:url(#SVGID_30_);fill:#FFFFFF;}
	
		.st19{clip-path:url(#SVGID_32_);fill:none;stroke:#000000;stroke-width:0.3685;stroke-linecap:round;stroke-linejoin:round;stroke-miterlimit:10;}
	
		.st20{clip-path:url(#SVGID_34_);fill:none;stroke:#000000;stroke-width:0.3685;stroke-linecap:round;stroke-linejoin:round;stroke-miterlimit:10;}
	
		.st21{clip-path:url(#SVGID_36_);fill:none;stroke:#000000;stroke-width:0.3685;stroke-linecap:round;stroke-linejoin:round;stroke-miterlimit:10;}
	
		.st22{clip-path:url(#SVGID_38_);fill:none;stroke:#000000;stroke-width:0.3685;stroke-linecap:round;stroke-linejoin:round;stroke-miterlimit:10;}
	
		.st23{clip-path:url(#SVGID_40_);fill:none;stroke:#000000;stroke-width:0.3685;stroke-linecap:round;stroke-linejoin:round;stroke-miterlimit:10;}
	
		.st24{clip-path:url(#SVGID_42_);fill:none;stroke:#000000;stroke-width:0.3685;stroke-linecap:round;stroke-linejoin:round;stroke-miterlimit:10;}
	
		.st25{clip-path:url(#SVGID_44_);fill:none;stroke:#000000;stroke-width:0.3685;stroke-linecap:round;stroke-linejoin:round;stroke-miterlimit:10;}
	
		.st26{clip-path:url(#SVGID_46_);fill:none;stroke:#000000;stroke-width:0.3685;stroke-linecap:round;stroke-linejoin:round;stroke-miterlimit:10;}
	
		.st27{clip-path:url(#SVGID_48_);fill:none;stroke:#000000;stroke-width:0.3685;stroke-linecap:round;stroke-linejoin:round;stroke-miterlimit:10;}
	
		.st28{clip-path:url(#SVGID_50_);fill:none;stroke:#000000;stroke-width:0.3685;stroke-linecap:round;stroke-linejoin:round;stroke-miterlimit:10;}
	
		.st29{clip-path:url(#SVGID_52_);fill:none;stroke:#000000;stroke-width:0.3685;stroke-linecap:round;stroke-linejoin:round;stroke-miterlimit:10;}
	
		.st30{clip-path:url(#SVGID_54_);fill:none;stroke:#000000;stroke-width:0.3685;stroke-linecap:round;stroke-linejoin:round;stroke-miterlimit:10;}
	
		.st31{clip-path:url(#SVGID_56_);fill:none;stroke:#000000;stroke-width:0.3685;stroke-linecap:round;stroke-linejoin:round;stroke-miterlimit:10;}
	
		.st32{clip-path:url(#SVGID_58_);fill:none;stroke:#000000;stroke-width:0.3685;stroke-linecap:round;stroke-linejoin:round;stroke-miterlimit:10;}
	
		.st33{clip-path:url(#SVGID_60_);fill:none;stroke:#000000;stroke-width:0.3685;stroke-linecap:round;stroke-linejoin:round;stroke-miterlimit:10;}
	
		.st34{clip-path:url(#SVGID_62_);fill:none;stroke:#000000;stroke-width:0.3685;stroke-linecap:round;stroke-linejoin:round;stroke-miterlimit:10;}
	
		.st35{clip-path:url(#SVGID_64_);fill:none;stroke:#000000;stroke-width:0.3685;stroke-linecap:round;stroke-linejoin:round;stroke-miterlimit:10;}
	
		.st36{clip-path:url(#SVGID_66_);fill:none;stroke:#000000;stroke-width:0.3685;stroke-linecap:round;stroke-linejoin:round;stroke-miterlimit:10;}
	
		.st37{clip-path:url(#SVGID_68_);fill:none;stroke:#000000;stroke-width:0.3685;stroke-linecap:round;stroke-linejoin:round;stroke-miterlimit:10;}
	
		.st38{clip-path:url(#SVGID_70_);fill:none;stroke:#000000;stroke-width:0.3685;stroke-linecap:round;stroke-linejoin:round;stroke-miterlimit:10;}
	
		.st39{clip-path:url(#SVGID_72_);fill:none;stroke:#000000;stroke-width:0.3685;stroke-linecap:round;stroke-linejoin:round;stroke-miterlimit:10;}
	
		.st40{clip-path:url(#SVGID_74_);fill:none;stroke:#000000;stroke-width:0.3685;stroke-linecap:round;stroke-linejoin:round;stroke-miterlimit:10;}
	
		.st41{clip-path:url(#SVGID_76_);fill:none;stroke:#000000;stroke-width:0.3685;stroke-linecap:round;stroke-linejoin:round;stroke-miterlimit:10;}
	
		.st42{clip-path:url(#SVGID_78_);fill:none;stroke:#000000;stroke-width:0.3685;stroke-linecap:round;stroke-linejoin:round;stroke-miterlimit:10;}
	
		.st43{clip-path:url(#SVGID_80_);fill:none;stroke:#000000;stroke-width:0.3685;stroke-linecap:round;stroke-linejoin:round;stroke-miterlimit:10;}
	
		.st44{clip-path:url(#SVGID_82_);fill:none;stroke:#000000;stroke-width:0.3685;stroke-linecap:round;stroke-linejoin:round;stroke-miterlimit:10;}
	
		.st45{clip-path:url(#SVGID_84_);fill:none;stroke:#000000;stroke-width:0.3685;stroke-linecap:round;stroke-linejoin:round;stroke-miterlimit:10;}
	
		.st46{clip-path:url(#SVGID_86_);fill:none;stroke:#000000;stroke-width:0.3685;stroke-linecap:round;stroke-linejoin:round;stroke-miterlimit:10;}
	
		.st47{clip-path:url(#SVGID_88_);fill:none;stroke:#000000;stroke-width:0.3685;stroke-linecap:round;stroke-linejoin:round;stroke-miterlimit:10;}
	
		.st48{clip-path:url(#SVGID_90_);fill:none;stroke:#000000;stroke-width:0.3685;stroke-linecap:round;stroke-linejoin:round;stroke-miterlimit:10;}
	
		.st49{clip-path:url(#SVGID_92_);fill:none;stroke:#000000;stroke-width:0.3685;stroke-linecap:round;stroke-linejoin:round;stroke-miterlimit:10;}
	
		.st50{clip-path:url(#SVGID_94_);fill:none;stroke:#000000;stroke-width:0.3685;stroke-linecap:round;stroke-linejoin:round;stroke-miterlimit:10;}
	
		.st51{clip-path:url(#SVGID_96_);fill:none;stroke:#000000;stroke-width:0.3685;stroke-linecap:round;stroke-linejoin:round;stroke-miterlimit:10;}
	
		.st52{clip-path:url(#SVGID_98_);fill:none;stroke:#000000;stroke-width:0.3685;stroke-linecap:round;stroke-linejoin:round;stroke-miterlimit:10;}
	
		.st53{clip-path:url(#SVGID_100_);fill:none;stroke:#000000;stroke-width:0.3685;stroke-linecap:round;stroke-linejoin:round;stroke-miterlimit:10;}
	
		.st54{clip-path:url(#SVGID_102_);fill:none;stroke:#000000;stroke-width:0.3685;stroke-linecap:round;stroke-linejoin:round;stroke-miterlimit:10;}
	
		.st55{clip-path:url(#SVGID_104_);fill:none;stroke:#000000;stroke-width:0.3685;stroke-linecap:round;stroke-linejoin:round;stroke-miterlimit:10;}
	
		.st56{clip-path:url(#SVGID_106_);fill:none;stroke:#000000;stroke-width:0.3685;stroke-linecap:round;stroke-linejoin:round;stroke-miterlimit:10;}
	
		.st57{clip-path:url(#SVGID_108_);fill:none;stroke:#000000;stroke-width:0.3685;stroke-linecap:round;stroke-linejoin:round;stroke-miterlimit:10;}
	
		.st58{clip-path:url(#SVGID_110_);fill:none;stroke:#000000;stroke-width:0.3685;stroke-linecap:round;stroke-linejoin:round;stroke-miterlimit:10;}
	
		.st59{clip-path:url(#SVGID_112_);fill:none;stroke:#000000;stroke-width:0.3685;stroke-linecap:round;stroke-linejoin:round;stroke-miterlimit:10;}
	
		.st60{clip-path:url(#SVGID_114_);fill:none;stroke:#000000;stroke-width:0.3685;stroke-linecap:round;stroke-linejoin:round;stroke-miterlimit:10;}
	
		.st61{clip-path:url(#SVGID_116_);fill:none;stroke:#000000;stroke-width:0.3685;stroke-linecap:round;stroke-linejoin:round;stroke-miterlimit:10;}
	
		.st62{clip-path:url(#SVGID_118_);fill:none;stroke:#000000;stroke-width:0.3685;stroke-linecap:round;stroke-linejoin:round;stroke-miterlimit:10;}
	
		.st63{clip-path:url(#SVGID_120_);fill:none;stroke:#000000;stroke-width:0.3685;stroke-linecap:round;stroke-linejoin:round;stroke-miterlimit:10;}
	
		.st64{clip-path:url(#SVGID_122_);fill:none;stroke:#000000;stroke-width:0.3685;stroke-linecap:round;stroke-linejoin:round;stroke-miterlimit:10;}
	
		.st65{clip-path:url(#SVGID_124_);fill:none;stroke:#000000;stroke-width:0.3685;stroke-linecap:round;stroke-linejoin:round;stroke-miterlimit:10;}
	
		.st66{clip-path:url(#SVGID_126_);fill:none;stroke:#000000;stroke-width:0.3685;stroke-linecap:round;stroke-linejoin:round;stroke-miterlimit:10;}
	
		.st67{clip-path:url(#SVGID_128_);fill:none;stroke:#000000;stroke-width:0.3685;stroke-linecap:round;stroke-linejoin:round;stroke-miterlimit:10;}
	
		.st68{clip-path:url(#SVGID_130_);fill:none;stroke:#000000;stroke-width:0.3685;stroke-linecap:round;stroke-linejoin:round;stroke-miterlimit:10;}
	
		.st69{clip-path:url(#SVGID_132_);fill:none;stroke:#000000;stroke-width:0.3685;stroke-linecap:round;stroke-linejoin:round;stroke-miterlimit:10;}
	
		.st70{clip-path:url(#SVGID_134_);fill:none;stroke:#000000;stroke-width:0.3685;stroke-linecap:round;stroke-linejoin:round;stroke-miterlimit:10;}
	
		.st71{clip-path:url(#SVGID_136_);fill:none;stroke:#000000;stroke-width:0.3685;stroke-linecap:round;stroke-linejoin:round;stroke-miterlimit:10;}
	
		.st72{clip-path:url(#SVGID_138_);fill:none;stroke:#000000;stroke-width:0.3685;stroke-linecap:round;stroke-linejoin:round;stroke-miterlimit:10;}
	
		.st73{clip-path:url(#SVGID_140_);fill:none;stroke:#000000;stroke-width:0.3685;stroke-linecap:round;stroke-linejoin:round;stroke-miterlimit:10;}
	
		.st74{clip-path:url(#SVGID_142_);fill:none;stroke:#000000;stroke-width:0.3685;stroke-linecap:round;stroke-linejoin:round;stroke-miterlimit:10;}
	
		.st75{clip-path:url(#SVGID_144_);fill:none;stroke:#000000;stroke-width:0.3685;stroke-linecap:round;stroke-linejoin:round;stroke-miterlimit:10;}
	
		.st76{clip-path:url(#SVGID_146_);fill:none;stroke:#000000;stroke-width:0.3685;stroke-linecap:round;stroke-linejoin:round;stroke-miterlimit:10;}
	
		.st77{clip-path:url(#SVGID_148_);fill:none;stroke:#000000;stroke-width:0.3685;stroke-linecap:round;stroke-linejoin:round;stroke-miterlimit:10;}
	
		.st78{clip-path:url(#SVGID_150_);fill:none;stroke:#000000;stroke-width:0.3685;stroke-linecap:round;stroke-linejoin:round;stroke-miterlimit:10;}
	
		.st79{clip-path:url(#SVGID_152_);fill:none;stroke:#000000;stroke-width:0.3685;stroke-linecap:round;stroke-linejoin:round;stroke-miterlimit:10;}
</style>
<text transform="matrix(1 0 0 1 22 2812.0063)" class="st0 st1 st2">GSPublishe</text>
<text transform="matrix(1 0 0 1 43.1 2812.0063)" class="st0 st1 st2">rEngine</text>
<text transform="matrix(1 0 0 1 56.8 2812.0063)" class="st0 st1 st2"> </text>
<text transform="matrix(1 0 0 1 57.92 2812.0063)" class="st0 st1 st2">0.33.100.100</text>
<line class="st3" x1="159.5" y1="2810.6" x2="160.6" y2="2810.4"/>
<g>
	<g>
		<defs>
			<polyline id="SVGID_1_" points="21,21 2813,21 2813,2813 21,2813 21,21 			"/>
		</defs>
		<clipPath id="SVGID_2_">
			<use xlink:href="#SVGID_1_"  style="overflow:visible;"/>
		</clipPath>
		<polyline class="st4" points="558.3,564 562.2,564.5 565.9,565.9 569.1,568.1 571.7,571 573.5,574.5 574.5,578.3 574.5,582.3 
			573.5,586.1 571.7,589.6 569.1,592.5 565.9,594.7 562.2,596.1 558.3,596.6 554.4,596.1 550.7,594.7 547.5,592.5 544.9,589.6 
			543,586.1 542.1,582.3 542.1,578.3 543,574.5 544.9,571 547.5,568.1 550.7,565.9 554.4,564.5 558.3,564 		"/>
	</g>
	<g>
		<defs>
			<polyline id="SVGID_3_" points="21,21 2813,21 2813,2813 21,2813 21,21 			"/>
		</defs>
		<clipPath id="SVGID_4_">
			<use xlink:href="#SVGID_3_"  style="overflow:visible;"/>
		</clipPath>
		<polyline class="st5" points="268.4,2536.2 282.6,2536.2 282.6,2541.9 268.4,2541.9 268.4,2536.2 		"/>
	</g>
	<g>
		<defs>
			<polyline id="SVGID_5_" points="21,21 2813,21 2813,2813 21,2813 21,21 			"/>
		</defs>
		<clipPath id="SVGID_6_">
			<use xlink:href="#SVGID_5_"  style="overflow:visible;"/>
		</clipPath>
		<polyline class="st6" points="833.9,2536.2 848.1,2536.2 848.1,2541.9 833.9,2541.9 833.9,2536.2 		"/>
	</g>
	<g>
		<defs>
			<polyline id="SVGID_7_" points="21,21 2813,21 2813,2813 21,2813 21,21 			"/>
		</defs>
		<clipPath id="SVGID_8_">
			<use xlink:href="#SVGID_7_"  style="overflow:visible;"/>
		</clipPath>
		<polyline class="st7" points="826.2,2536.2 660,863 463,798.1 290.4,2536.2 260.6,2536.2 411.1,781 291.8,741.8 359.1,537.1 
			334.4,521.6 337.1,513.5 331.7,511.7 335.2,500.9 340.6,502.7 343.3,494.6 372.4,496.8 439.8,292.1 1064.4,497.7 916.5,947.4 
			714,880.7 855.9,2536.2 826.2,2536.2 		"/>
	</g>
	<g>
		<defs>
			<polyline id="SVGID_9_" points="21,21 2813,21 2813,2813 21,2813 21,21 			"/>
		</defs>
		<clipPath id="SVGID_10_">
			<use xlink:href="#SVGID_9_"  style="overflow:visible;"/>
		</clipPath>
		<polyline class="st8" points="328,1957.9 331.2,1958.4 334.1,1959.7 336.5,1961.9 338.3,1964.6 339.2,1967.7 339.2,1970.9 
			338.3,1974 336.5,1976.7 334.1,1978.8 331.2,1980.2 328,1980.6 324.8,1980.2 321.8,1978.8 319.4,1976.7 317.7,1974 316.7,1970.9 
			316.7,1967.7 317.7,1964.6 319.4,1961.9 321.8,1959.7 324.8,1958.4 328,1957.9 		"/>
	</g>
	<g>
		<defs>
			<polyline id="SVGID_11_" points="21,21 2813,21 2813,2813 21,2813 21,21 			"/>
		</defs>
		<clipPath id="SVGID_12_">
			<use xlink:href="#SVGID_11_"  style="overflow:visible;"/>
		</clipPath>
		<polyline class="st9" points="788.6,1957.9 791.8,1958.4 794.7,1959.7 797.2,1961.9 798.9,1964.6 799.8,1967.7 799.8,1970.9 
			798.9,1974 797.2,1976.7 794.7,1978.8 791.8,1980.2 788.6,1980.6 785.4,1980.2 782.5,1978.8 780,1976.7 778.3,1974 777.4,1970.9 
			777.4,1967.7 778.3,1964.6 780,1961.9 782.5,1959.7 785.4,1958.4 788.6,1957.9 		"/>
	</g>
	<g>
		<defs>
			<polyline id="SVGID_13_" points="21,21 2813,21 2813,2813 21,2813 21,21 			"/>
		</defs>
		<clipPath id="SVGID_14_">
			<use xlink:href="#SVGID_13_"  style="overflow:visible;"/>
		</clipPath>
		<polyline class="st10" points="558.3,564 562.2,564.5 565.9,565.9 569.1,568.1 571.7,571 573.5,574.5 574.5,578.3 574.5,582.3 
			573.5,586.1 571.7,589.6 569.1,592.5 565.9,594.7 562.2,596.1 558.3,596.6 554.4,596.1 550.7,594.7 547.5,592.5 544.9,589.6 
			543,586.1 542.1,582.3 542.1,578.3 543,574.5 544.9,571 547.5,568.1 550.7,565.9 554.4,564.5 558.3,564 		"/>
	</g>
	<g>
		<defs>
			<polyline id="SVGID_15_" points="21,21 2813,21 2813,2813 21,2813 21,21 			"/>
		</defs>
		<clipPath id="SVGID_16_">
			<use xlink:href="#SVGID_15_"  style="overflow:visible;"/>
		</clipPath>
		<polyline class="st11" points="268.4,2536.2 282.6,2536.2 282.6,2541.9 268.4,2541.9 268.4,2536.2 		"/>
	</g>
	<g>
		<defs>
			<polyline id="SVGID_17_" points="21,21 2813,21 2813,2813 21,2813 21,21 			"/>
		</defs>
		<clipPath id="SVGID_18_">
			<use xlink:href="#SVGID_17_"  style="overflow:visible;"/>
		</clipPath>
		<polyline class="st12" points="833.9,2536.2 848.1,2536.2 848.1,2541.9 833.9,2541.9 833.9,2536.2 		"/>
	</g>
	<g>
		<defs>
			<polyline id="SVGID_19_" points="21,21 2813,21 2813,2813 21,2813 21,21 			"/>
		</defs>
		<clipPath id="SVGID_20_">
			<use xlink:href="#SVGID_19_"  style="overflow:visible;"/>
		</clipPath>
		<polyline class="st13" points="2084.5,2536.2 2098.7,2536.2 2098.7,2541.9 2084.5,2541.9 2084.5,2536.2 		"/>
	</g>
	<g>
		<defs>
			<polyline id="SVGID_21_" points="21,21 2813,21 2813,2813 21,2813 21,21 			"/>
		</defs>
		<clipPath id="SVGID_22_">
			<use xlink:href="#SVGID_21_"  style="overflow:visible;"/>
		</clipPath>
		<polyline class="st14" points="2538.1,2536.2 2552.3,2536.2 2552.3,2541.9 2538.1,2541.9 2538.1,2536.2 		"/>
	</g>
	<g>
		<defs>
			<polyline id="SVGID_23_" points="21,21 2813,21 2813,2813 21,2813 21,21 			"/>
		</defs>
		<clipPath id="SVGID_24_">
			<use xlink:href="#SVGID_23_"  style="overflow:visible;"/>
		</clipPath>
		<polyline class="st15" points="2531,2536.2 2405.6,1555.6 2377.3,1601.6 2236.4,1514.9 2105.8,2536.2 2077.4,2536.2 
			2187.5,1484.8 1900.5,1308.2 2096.6,989.5 2573.4,1282.9 2486.5,1424.1 2506.9,1445 2502.4,1452.2 2507.3,1455.2 2501.3,1464.9 
			2496.5,1461.9 2492,1469.1 2464.2,1460.3 2449.3,1484.5 2559.3,2536.2 2531,2536.2 		"/>
	</g>
	<g>
		<defs>
			<polyline id="SVGID_25_" points="21,21 2813,21 2813,2813 21,2813 21,21 			"/>
		</defs>
		<clipPath id="SVGID_26_">
			<use xlink:href="#SVGID_25_"  style="overflow:visible;"/>
		</clipPath>
		<polyline class="st16" points="2318.4,1329.4 2322.3,1329.8 2326,1331.2 2329.2,1333.5 2331.8,1336.4 2333.6,1339.9 
			2334.6,1343.7 2334.6,1347.6 2333.6,1351.4 2331.8,1354.9 2329.2,1357.9 2326,1360.1 2322.3,1361.5 2318.4,1362 2314.5,1361.5 
			2310.8,1360.1 2307.6,1357.9 2305,1354.9 2303.2,1351.4 2302.2,1347.6 2302.2,1343.7 2303.2,1339.9 2305,1336.4 2307.6,1333.5 
			2310.8,1331.2 2314.5,1329.8 2318.4,1329.4 		"/>
	</g>
	<g>
		<defs>
			<polyline id="SVGID_27_" points="21,21 2813,21 2813,2813 21,2813 21,21 			"/>
		</defs>
		<clipPath id="SVGID_28_">
			<use xlink:href="#SVGID_27_"  style="overflow:visible;"/>
		</clipPath>
		<polyline class="st17" points="2141.1,2099.7 2144.3,2100.1 2147.2,2101.5 2149.6,2103.6 2151.4,2106.3 2152.3,2109.4 
			2152.3,2112.6 2151.4,2115.7 2149.6,2118.4 2147.2,2120.6 2144.3,2121.9 2141.1,2122.4 2137.9,2121.9 2134.9,2120.6 
			2132.5,2118.4 2130.7,2115.7 2129.8,2112.6 2129.8,2109.4 2130.7,2106.3 2132.5,2103.6 2134.9,2101.5 2137.9,2100.1 
			2141.1,2099.7 		"/>
	</g>
	<g>
		<defs>
			<polyline id="SVGID_29_" points="21,21 2813,21 2813,2813 21,2813 21,21 			"/>
		</defs>
		<clipPath id="SVGID_30_">
			<use xlink:href="#SVGID_29_"  style="overflow:visible;"/>
		</clipPath>
		<polyline class="st18" points="2495.7,2099.7 2498.9,2100.1 2501.9,2101.5 2504.3,2103.6 2506,2106.3 2506.9,2109.4 
			2506.9,2112.6 2506,2115.7 2504.3,2118.4 2501.9,2120.6 2498.9,2121.9 2495.7,2122.4 2492.5,2121.9 2489.6,2120.6 2487.2,2118.4 
			2485.4,2115.7 2484.5,2112.6 2484.5,2109.4 2485.4,2106.3 2487.2,2103.6 2489.6,2101.5 2492.5,2100.1 2495.7,2099.7 		"/>
	</g>
	<g>
		<defs>
			<polyline id="SVGID_31_" points="21,21 2813,21 2813,2813 21,2813 21,21 			"/>
		</defs>
		<clipPath id="SVGID_32_">
			<use xlink:href="#SVGID_31_"  style="overflow:visible;"/>
		</clipPath>
		<line class="st19" x1="1064.4" y1="497.7" x2="916.5" y2="947.4"/>
	</g>
	<g>
		<defs>
			<polyline id="SVGID_33_" points="21,21 2813,21 2813,2813 21,2813 21,21 			"/>
		</defs>
		<clipPath id="SVGID_34_">
			<use xlink:href="#SVGID_33_"  style="overflow:visible;"/>
		</clipPath>
		<line class="st20" x1="916.5" y1="947.4" x2="714" y2="880.7"/>
	</g>
	<g>
		<defs>
			<polyline id="SVGID_35_" points="21,21 2813,21 2813,2813 21,2813 21,21 			"/>
		</defs>
		<clipPath id="SVGID_36_">
			<use xlink:href="#SVGID_35_"  style="overflow:visible;"/>
		</clipPath>
		<line class="st21" x1="291.8" y1="741.8" x2="439.8" y2="292.1"/>
	</g>
	<g>
		<defs>
			<polyline id="SVGID_37_" points="21,21 2813,21 2813,2813 21,2813 21,21 			"/>
		</defs>
		<clipPath id="SVGID_38_">
			<use xlink:href="#SVGID_37_"  style="overflow:visible;"/>
		</clipPath>
		<line class="st22" x1="439.8" y1="292.1" x2="1064.4" y2="497.7"/>
	</g>
	<g>
		<defs>
			<polyline id="SVGID_39_" points="21,21 2813,21 2813,2813 21,2813 21,21 			"/>
		</defs>
		<clipPath id="SVGID_40_">
			<use xlink:href="#SVGID_39_"  style="overflow:visible;"/>
		</clipPath>
		<line class="st23" x1="685.8" y1="552" x2="430.7" y2="552"/>
	</g>
	<g>
		<defs>
			<polyline id="SVGID_41_" points="21,21 2813,21 2813,2813 21,2813 21,21 			"/>
		</defs>
		<clipPath id="SVGID_42_">
			<use xlink:href="#SVGID_41_"  style="overflow:visible;"/>
		</clipPath>
		<line class="st24" x1="481.8" y1="608.7" x2="634.8" y2="608.7"/>
	</g>
	<g>
		<defs>
			<polyline id="SVGID_43_" points="21,21 2813,21 2813,2813 21,2813 21,21 			"/>
		</defs>
		<clipPath id="SVGID_44_">
			<use xlink:href="#SVGID_43_"  style="overflow:visible;"/>
		</clipPath>
		<line class="st25" x1="411.1" y1="781" x2="291.8" y2="741.8"/>
	</g>
	<g>
		<defs>
			<polyline id="SVGID_45_" points="21,21 2813,21 2813,2813 21,2813 21,21 			"/>
		</defs>
		<clipPath id="SVGID_46_">
			<use xlink:href="#SVGID_45_"  style="overflow:visible;"/>
		</clipPath>
		<line class="st26" x1="660" y1="863" x2="463" y2="798.1"/>
	</g>
	<g>
		<defs>
			<polyline id="SVGID_47_" points="21,21 2813,21 2813,2813 21,2813 21,21 			"/>
		</defs>
		<clipPath id="SVGID_48_">
			<use xlink:href="#SVGID_47_"  style="overflow:visible;"/>
		</clipPath>
		<line class="st27" x1="338.8" y1="508.1" x2="343.3" y2="494.6"/>
	</g>
	<g>
		<defs>
			<polyline id="SVGID_49_" points="21,21 2813,21 2813,2813 21,2813 21,21 			"/>
		</defs>
		<clipPath id="SVGID_50_">
			<use xlink:href="#SVGID_49_"  style="overflow:visible;"/>
		</clipPath>
		<line class="st28" x1="338.8" y1="508.1" x2="334.4" y2="521.6"/>
	</g>
	<g>
		<defs>
			<polyline id="SVGID_51_" points="21,21 2813,21 2813,2813 21,2813 21,21 			"/>
		</defs>
		<clipPath id="SVGID_52_">
			<use xlink:href="#SVGID_51_"  style="overflow:visible;"/>
		</clipPath>
		<line class="st29" x1="372.4" y1="496.8" x2="343.3" y2="494.6"/>
	</g>
	<g>
		<defs>
			<polyline id="SVGID_53_" points="21,21 2813,21 2813,2813 21,2813 21,21 			"/>
		</defs>
		<clipPath id="SVGID_54_">
			<use xlink:href="#SVGID_53_"  style="overflow:visible;"/>
		</clipPath>
		<line class="st30" x1="359.1" y1="537.1" x2="334.4" y2="521.6"/>
	</g>
	<g>
		<defs>
			<polyline id="SVGID_55_" points="21,21 2813,21 2813,2813 21,2813 21,21 			"/>
		</defs>
		<clipPath id="SVGID_56_">
			<use xlink:href="#SVGID_55_"  style="overflow:visible;"/>
		</clipPath>
		<line class="st31" x1="333.4" y1="506.3" x2="335.2" y2="500.9"/>
	</g>
	<g>
		<defs>
			<polyline id="SVGID_57_" points="21,21 2813,21 2813,2813 21,2813 21,21 			"/>
		</defs>
		<clipPath id="SVGID_58_">
			<use xlink:href="#SVGID_57_"  style="overflow:visible;"/>
		</clipPath>
		<line class="st32" x1="333.4" y1="506.3" x2="331.7" y2="511.7"/>
	</g>
	<g>
		<defs>
			<polyline id="SVGID_59_" points="21,21 2813,21 2813,2813 21,2813 21,21 			"/>
		</defs>
		<clipPath id="SVGID_60_">
			<use xlink:href="#SVGID_59_"  style="overflow:visible;"/>
		</clipPath>
		<line class="st33" x1="331.7" y1="511.7" x2="337.1" y2="513.5"/>
	</g>
	<g>
		<defs>
			<polyline id="SVGID_61_" points="21,21 2813,21 2813,2813 21,2813 21,21 			"/>
		</defs>
		<clipPath id="SVGID_62_">
			<use xlink:href="#SVGID_61_"  style="overflow:visible;"/>
		</clipPath>
		<line class="st34" x1="335.2" y1="500.9" x2="340.6" y2="502.7"/>
	</g>
	<g>
		<defs>
			<polyline id="SVGID_63_" points="21,21 2813,21 2813,2813 21,2813 21,21 			"/>
		</defs>
		<clipPath id="SVGID_64_">
			<use xlink:href="#SVGID_63_"  style="overflow:visible;"/>
		</clipPath>
		<line class="st35" x1="260.6" y1="2536.2" x2="430.7" y2="552"/>
	</g>
	<g>
		<defs>
			<polyline id="SVGID_65_" points="21,21 2813,21 2813,2813 21,2813 21,21 			"/>
		</defs>
		<clipPath id="SVGID_66_">
			<use xlink:href="#SVGID_65_"  style="overflow:visible;"/>
		</clipPath>
		<line class="st36" x1="855.9" y1="2536.2" x2="685.8" y2="552"/>
	</g>
	<g>
		<defs>
			<polyline id="SVGID_67_" points="21,21 2813,21 2813,2813 21,2813 21,21 			"/>
		</defs>
		<clipPath id="SVGID_68_">
			<use xlink:href="#SVGID_67_"  style="overflow:visible;"/>
		</clipPath>
		<line class="st37" x1="855.9" y1="2536.2" x2="826.2" y2="2536.2"/>
	</g>
	<g>
		<defs>
			<polyline id="SVGID_69_" points="21,21 2813,21 2813,2813 21,2813 21,21 			"/>
		</defs>
		<clipPath id="SVGID_70_">
			<use xlink:href="#SVGID_69_"  style="overflow:visible;"/>
		</clipPath>
		<line class="st38" x1="260.6" y1="2536.2" x2="290.4" y2="2536.2"/>
	</g>
	<g>
		<defs>
			<polyline id="SVGID_71_" points="21,21 2813,21 2813,2813 21,2813 21,21 			"/>
		</defs>
		<clipPath id="SVGID_72_">
			<use xlink:href="#SVGID_71_"  style="overflow:visible;"/>
		</clipPath>
		<line class="st39" x1="487.4" y1="552" x2="290.4" y2="2536.2"/>
	</g>
	<g>
		<defs>
			<polyline id="SVGID_73_" points="21,21 2813,21 2813,2813 21,2813 21,21 			"/>
		</defs>
		<clipPath id="SVGID_74_">
			<use xlink:href="#SVGID_73_"  style="overflow:visible;"/>
		</clipPath>
		<line class="st40" x1="629.1" y1="552" x2="826.2" y2="2536.2"/>
	</g>
	<g>
		<defs>
			<polyline id="SVGID_75_" points="21,21 2813,21 2813,2813 21,2813 21,21 			"/>
		</defs>
		<clipPath id="SVGID_76_">
			<use xlink:href="#SVGID_75_"  style="overflow:visible;"/>
		</clipPath>
		<line class="st41" x1="275.5" y1="2541.9" x2="282.6" y2="2541.9"/>
	</g>
	<g>
		<defs>
			<polyline id="SVGID_77_" points="21,21 2813,21 2813,2813 21,2813 21,21 			"/>
		</defs>
		<clipPath id="SVGID_78_">
			<use xlink:href="#SVGID_77_"  style="overflow:visible;"/>
		</clipPath>
		<line class="st42" x1="275.5" y1="2541.9" x2="268.4" y2="2541.9"/>
	</g>
	<g>
		<defs>
			<polyline id="SVGID_79_" points="21,21 2813,21 2813,2813 21,2813 21,21 			"/>
		</defs>
		<clipPath id="SVGID_80_">
			<use xlink:href="#SVGID_79_"  style="overflow:visible;"/>
		</clipPath>
		<line class="st43" x1="268.4" y1="2541.9" x2="268.4" y2="2536.2"/>
	</g>
	<g>
		<defs>
			<polyline id="SVGID_81_" points="21,21 2813,21 2813,2813 21,2813 21,21 			"/>
		</defs>
		<clipPath id="SVGID_82_">
			<use xlink:href="#SVGID_81_"  style="overflow:visible;"/>
		</clipPath>
		<line class="st44" x1="282.6" y1="2541.9" x2="282.6" y2="2536.2"/>
	</g>
	<g>
		<defs>
			<polyline id="SVGID_83_" points="21,21 2813,21 2813,2813 21,2813 21,21 			"/>
		</defs>
		<clipPath id="SVGID_84_">
			<use xlink:href="#SVGID_83_"  style="overflow:visible;"/>
		</clipPath>
		<line class="st45" x1="841" y1="2541.9" x2="848.1" y2="2541.9"/>
	</g>
	<g>
		<defs>
			<polyline id="SVGID_85_" points="21,21 2813,21 2813,2813 21,2813 21,21 			"/>
		</defs>
		<clipPath id="SVGID_86_">
			<use xlink:href="#SVGID_85_"  style="overflow:visible;"/>
		</clipPath>
		<line class="st46" x1="841" y1="2541.9" x2="833.9" y2="2541.9"/>
	</g>
	<g>
		<defs>
			<polyline id="SVGID_87_" points="21,21 2813,21 2813,2813 21,2813 21,21 			"/>
		</defs>
		<clipPath id="SVGID_88_">
			<use xlink:href="#SVGID_87_"  style="overflow:visible;"/>
		</clipPath>
		<line class="st47" x1="833.9" y1="2541.9" x2="833.9" y2="2536.2"/>
	</g>
	<g>
		<defs>
			<polyline id="SVGID_89_" points="21,21 2813,21 2813,2813 21,2813 21,21 			"/>
		</defs>
		<clipPath id="SVGID_90_">
			<use xlink:href="#SVGID_89_"  style="overflow:visible;"/>
		</clipPath>
		<line class="st48" x1="848.1" y1="2541.9" x2="848.1" y2="2536.2"/>
	</g>
	<g>
		<defs>
			<polyline id="SVGID_91_" points="21,21 2813,21 2813,2813 21,2813 21,21 			"/>
		</defs>
		<clipPath id="SVGID_92_">
			<use xlink:href="#SVGID_91_"  style="overflow:visible;"/>
		</clipPath>
		<line class="st49" x1="2096.6" y1="989.5" x2="1900.5" y2="1308.2"/>
	</g>
	<g>
		<defs>
			<polyline id="SVGID_93_" points="21,21 2813,21 2813,2813 21,2813 21,21 			"/>
		</defs>
		<clipPath id="SVGID_94_">
			<use xlink:href="#SVGID_93_"  style="overflow:visible;"/>
		</clipPath>
		<line class="st50" x1="2096.6" y1="989.5" x2="2573.4" y2="1282.9"/>
	</g>
	<g>
		<defs>
			<polyline id="SVGID_95_" points="21,21 2813,21 2813,2813 21,2813 21,21 			"/>
		</defs>
		<clipPath id="SVGID_96_">
			<use xlink:href="#SVGID_95_"  style="overflow:visible;"/>
		</clipPath>
		<line class="st51" x1="2573.4" y1="1282.9" x2="2449.3" y2="1484.5"/>
	</g>
	<g>
		<defs>
			<polyline id="SVGID_97_" points="21,21 2813,21 2813,2813 21,2813 21,21 			"/>
		</defs>
		<clipPath id="SVGID_98_">
			<use xlink:href="#SVGID_97_"  style="overflow:visible;"/>
		</clipPath>
		<line class="st52" x1="1900.5" y1="1308.2" x2="2187.5" y2="1484.8"/>
	</g>
	<g>
		<defs>
			<polyline id="SVGID_99_" points="21,21 2813,21 2813,2813 21,2813 21,21 			"/>
		</defs>
		<clipPath id="SVGID_100_">
			<use xlink:href="#SVGID_99_"  style="overflow:visible;"/>
		</clipPath>
		<line class="st53" x1="2431.8" y1="1317.3" x2="2205" y2="1317.3"/>
	</g>
	<g>
		<defs>
			<polyline id="SVGID_101_" points="21,21 2813,21 2813,2813 21,2813 21,21 			"/>
		</defs>
		<clipPath id="SVGID_102_">
			<use xlink:href="#SVGID_101_"  style="overflow:visible;"/>
		</clipPath>
		<line class="st54" x1="2254.5" y1="1374" x2="2382.3" y2="1374"/>
	</g>
	<g>
		<defs>
			<polyline id="SVGID_103_" points="21,21 2813,21 2813,2813 21,2813 21,21 			"/>
		</defs>
		<clipPath id="SVGID_104_">
			<use xlink:href="#SVGID_103_"  style="overflow:visible;"/>
		</clipPath>
		<line class="st55" x1="2531" y1="2536.2" x2="2559.3" y2="2536.2"/>
	</g>
	<g>
		<defs>
			<polyline id="SVGID_105_" points="21,21 2813,21 2813,2813 21,2813 21,21 			"/>
		</defs>
		<clipPath id="SVGID_106_">
			<use xlink:href="#SVGID_105_"  style="overflow:visible;"/>
		</clipPath>
		<line class="st56" x1="2105.8" y1="2536.2" x2="2077.4" y2="2536.2"/>
	</g>
	<g>
		<defs>
			<polyline id="SVGID_107_" points="21,21 2813,21 2813,2813 21,2813 21,21 			"/>
		</defs>
		<clipPath id="SVGID_108_">
			<use xlink:href="#SVGID_107_"  style="overflow:visible;"/>
		</clipPath>
		<line class="st57" x1="2077.4" y1="2536.2" x2="2205" y2="1317.3"/>
	</g>
	<g>
		<defs>
			<polyline id="SVGID_109_" points="21,21 2813,21 2813,2813 21,2813 21,21 			"/>
		</defs>
		<clipPath id="SVGID_110_">
			<use xlink:href="#SVGID_109_"  style="overflow:visible;"/>
		</clipPath>
		<line class="st58" x1="2559.3" y1="2536.2" x2="2431.8" y2="1317.3"/>
	</g>
	<g>
		<defs>
			<polyline id="SVGID_111_" points="21,21 2813,21 2813,2813 21,2813 21,21 			"/>
		</defs>
		<clipPath id="SVGID_112_">
			<use xlink:href="#SVGID_111_"  style="overflow:visible;"/>
		</clipPath>
		<line class="st59" x1="2261.7" y1="1317.3" x2="2105.8" y2="2536.2"/>
	</g>
	<g>
		<defs>
			<polyline id="SVGID_113_" points="21,21 2813,21 2813,2813 21,2813 21,21 			"/>
		</defs>
		<clipPath id="SVGID_114_">
			<use xlink:href="#SVGID_113_"  style="overflow:visible;"/>
		</clipPath>
		<line class="st60" x1="2375.1" y1="1317.3" x2="2531" y2="2536.2"/>
	</g>
	<g>
		<defs>
			<polyline id="SVGID_115_" points="21,21 2813,21 2813,2813 21,2813 21,21 			"/>
		</defs>
		<clipPath id="SVGID_116_">
			<use xlink:href="#SVGID_115_"  style="overflow:visible;"/>
		</clipPath>
		<line class="st61" x1="2236.4" y1="1514.9" x2="2377.3" y2="1601.6"/>
	</g>
	<g>
		<defs>
			<polyline id="SVGID_117_" points="21,21 2813,21 2813,2813 21,2813 21,21 			"/>
		</defs>
		<clipPath id="SVGID_118_">
			<use xlink:href="#SVGID_117_"  style="overflow:visible;"/>
		</clipPath>
		<line class="st62" x1="2405.6" y1="1555.6" x2="2377.3" y2="1601.6"/>
	</g>
	<g>
		<defs>
			<polyline id="SVGID_119_" points="21,21 2813,21 2813,2813 21,2813 21,21 			"/>
		</defs>
		<clipPath id="SVGID_120_">
			<use xlink:href="#SVGID_119_"  style="overflow:visible;"/>
		</clipPath>
		<line class="st63" x1="2091.6" y1="2541.9" x2="2098.7" y2="2541.9"/>
	</g>
	<g>
		<defs>
			<polyline id="SVGID_121_" points="21,21 2813,21 2813,2813 21,2813 21,21 			"/>
		</defs>
		<clipPath id="SVGID_122_">
			<use xlink:href="#SVGID_121_"  style="overflow:visible;"/>
		</clipPath>
		<line class="st64" x1="2098.7" y1="2541.9" x2="2098.7" y2="2536.2"/>
	</g>
	<g>
		<defs>
			<polyline id="SVGID_123_" points="21,21 2813,21 2813,2813 21,2813 21,21 			"/>
		</defs>
		<clipPath id="SVGID_124_">
			<use xlink:href="#SVGID_123_"  style="overflow:visible;"/>
		</clipPath>
		<line class="st65" x1="2091.6" y1="2541.9" x2="2084.5" y2="2541.9"/>
	</g>
	<g>
		<defs>
			<polyline id="SVGID_125_" points="21,21 2813,21 2813,2813 21,2813 21,21 			"/>
		</defs>
		<clipPath id="SVGID_126_">
			<use xlink:href="#SVGID_125_"  style="overflow:visible;"/>
		</clipPath>
		<line class="st66" x1="2084.5" y1="2541.9" x2="2084.5" y2="2536.2"/>
	</g>
	<g>
		<defs>
			<polyline id="SVGID_127_" points="21,21 2813,21 2813,2813 21,2813 21,21 			"/>
		</defs>
		<clipPath id="SVGID_128_">
			<use xlink:href="#SVGID_127_"  style="overflow:visible;"/>
		</clipPath>
		<line class="st67" x1="2545.2" y1="2541.9" x2="2552.3" y2="2541.9"/>
	</g>
	<g>
		<defs>
			<polyline id="SVGID_129_" points="21,21 2813,21 2813,2813 21,2813 21,21 			"/>
		</defs>
		<clipPath id="SVGID_130_">
			<use xlink:href="#SVGID_129_"  style="overflow:visible;"/>
		</clipPath>
		<line class="st68" x1="2545.2" y1="2541.9" x2="2538.1" y2="2541.9"/>
	</g>
	<g>
		<defs>
			<polyline id="SVGID_131_" points="21,21 2813,21 2813,2813 21,2813 21,21 			"/>
		</defs>
		<clipPath id="SVGID_132_">
			<use xlink:href="#SVGID_131_"  style="overflow:visible;"/>
		</clipPath>
		<line class="st69" x1="2538.1" y1="2541.9" x2="2538.1" y2="2536.2"/>
	</g>
	<g>
		<defs>
			<polyline id="SVGID_133_" points="21,21 2813,21 2813,2813 21,2813 21,21 			"/>
		</defs>
		<clipPath id="SVGID_134_">
			<use xlink:href="#SVGID_133_"  style="overflow:visible;"/>
		</clipPath>
		<line class="st70" x1="2552.3" y1="2541.9" x2="2552.3" y2="2536.2"/>
	</g>
	<g>
		<defs>
			<polyline id="SVGID_135_" points="21,21 2813,21 2813,2813 21,2813 21,21 			"/>
		</defs>
		<clipPath id="SVGID_136_">
			<use xlink:href="#SVGID_135_"  style="overflow:visible;"/>
		</clipPath>
		<line class="st71" x1="2499.5" y1="1457.1" x2="2492" y2="1469.1"/>
	</g>
	<g>
		<defs>
			<polyline id="SVGID_137_" points="21,21 2813,21 2813,2813 21,2813 21,21 			"/>
		</defs>
		<clipPath id="SVGID_138_">
			<use xlink:href="#SVGID_137_"  style="overflow:visible;"/>
		</clipPath>
		<line class="st72" x1="2499.5" y1="1457.1" x2="2506.9" y2="1445"/>
	</g>
	<g>
		<defs>
			<polyline id="SVGID_139_" points="21,21 2813,21 2813,2813 21,2813 21,21 			"/>
		</defs>
		<clipPath id="SVGID_140_">
			<use xlink:href="#SVGID_139_"  style="overflow:visible;"/>
		</clipPath>
		<line class="st73" x1="2464.2" y1="1460.3" x2="2492" y2="1469.1"/>
	</g>
	<g>
		<defs>
			<polyline id="SVGID_141_" points="21,21 2813,21 2813,2813 21,2813 21,21 			"/>
		</defs>
		<clipPath id="SVGID_142_">
			<use xlink:href="#SVGID_141_"  style="overflow:visible;"/>
		</clipPath>
		<line class="st74" x1="2486.5" y1="1424.1" x2="2506.9" y2="1445"/>
	</g>
	<g>
		<defs>
			<polyline id="SVGID_143_" points="21,21 2813,21 2813,2813 21,2813 21,21 			"/>
		</defs>
		<clipPath id="SVGID_144_">
			<use xlink:href="#SVGID_143_"  style="overflow:visible;"/>
		</clipPath>
		<line class="st75" x1="2504.3" y1="1460" x2="2501.3" y2="1464.9"/>
	</g>
	<g>
		<defs>
			<polyline id="SVGID_145_" points="21,21 2813,21 2813,2813 21,2813 21,21 			"/>
		</defs>
		<clipPath id="SVGID_146_">
			<use xlink:href="#SVGID_145_"  style="overflow:visible;"/>
		</clipPath>
		<line class="st76" x1="2504.3" y1="1460" x2="2507.3" y2="1455.2"/>
	</g>
	<g>
		<defs>
			<polyline id="SVGID_147_" points="21,21 2813,21 2813,2813 21,2813 21,21 			"/>
		</defs>
		<clipPath id="SVGID_148_">
			<use xlink:href="#SVGID_147_"  style="overflow:visible;"/>
		</clipPath>
		<line class="st77" x1="2507.3" y1="1455.2" x2="2502.4" y2="1452.2"/>
	</g>
	<g>
		<defs>
			<polyline id="SVGID_149_" points="21,21 2813,21 2813,2813 21,2813 21,21 			"/>
		</defs>
		<clipPath id="SVGID_150_">
			<use xlink:href="#SVGID_149_"  style="overflow:visible;"/>
		</clipPath>
		<line class="st78" x1="2501.3" y1="1464.9" x2="2496.5" y2="1461.9"/>
	</g>
	<g>
		<defs>
			<polyline id="SVGID_151_" points="21,21 2813,21 2813,2813 21,2813 21,21 			"/>
		</defs>
		<clipPath id="SVGID_152_">
			<use xlink:href="#SVGID_151_"  style="overflow:visible;"/>
		</clipPath>
		<line class="st79" x1="2486.5" y1="1424.1" x2="2464.2" y2="1460.3"/>
	</g>
</g>
</svg>
