<?xml version="1.0" encoding="utf-8"?>
<!-- Generator: Adobe Illustrator 18.1.0, SVG Export Plug-In . SVG Version: 6.00 Build 0)  -->
<svg version="1.1" id="Layer_1" xmlns="http://www.w3.org/2000/svg" xmlns:xlink="http://www.w3.org/1999/xlink" x="0px" y="0px"
	 viewBox="0 0 2834.6 2834.6" enable-background="new 0 0 2834.6 2834.6" xml:space="preserve">
<text transform="matrix(1 0 0 1 22 2812.0063)"><tspan x="0" y="0" fill="#FFFFFF" font-family="'ArialMT'" font-size="4">GSPublishe</tspan><tspan x="21.1" y="0" fill="#FFFFFF" font-family="'ArialMT'" font-size="4">rEngine</tspan><tspan x="34.8" y="0" fill="#FFFFFF" font-family="'ArialMT'" font-size="4"> </tspan></text>
<text transform="matrix(1 0 0 1 57.92 2812.0063)" fill="#FFFFFF" font-family="'ArialMT'" font-size="4">0.21.100.100</text>
<line fill="none" stroke="#000000" stroke-width="0.2835" stroke-linecap="round" stroke-linejoin="round" stroke-miterlimit="10" x1="99.2" y1="2810.6" x2="100.3" y2="2810.4"/>
<g>
	<defs>
		<polyline id="SVGID_1_" points="21,21 2813,21 2813,2813 21,2813 21,21 		"/>
	</defs>
	<clipPath id="SVGID_2_">
		<use xlink:href="#SVGID_1_"  overflow="visible"/>
	</clipPath>
	<polyline clip-path="url(#SVGID_2_)" fill-rule="evenodd" clip-rule="evenodd" points="711.2,1443.4 2122.8,1443.4 2122.8,1466.3 
		2122.5,1467.6 2121.5,1468.6 2120.2,1469.1 1977.3,1481.1 2007.4,1838.2 2007.1,1839.7 2006,1840.9 2004.6,1841.3 1981.7,1841.3 
		1980.4,1841 1979.4,1840.1 1978.9,1838.9 1920.8,1485.9 914.6,1485.9 856.8,1839 856.2,1840.2 855.2,1841 854,1841.3 831.1,1841.3 
		829.6,1840.9 828.6,1839.8 828.3,1838.3 858.1,1481.1 713.8,1469.1 712.5,1468.6 711.5,1467.6 711.2,1466.3 711.2,1443.4 	"/>
	<polyline clip-path="url(#SVGID_2_)" fill-rule="evenodd" clip-rule="evenodd" points="354,1219.4 1415.6,1219.4 1415.6,1443.4 
		354,1443.4 354,1219.4 	"/>
	<polyline clip-path="url(#SVGID_2_)" fill-rule="evenodd" clip-rule="evenodd" points="1418.4,1443.4 1418.4,1219.4 2480,1219.4 
		2480,1443.4 1418.4,1443.4 	"/>
	<polyline clip-path="url(#SVGID_2_)" fill-rule="evenodd" clip-rule="evenodd" points="2480,1216.6 1418.4,1216.6 1418.4,992.7 
		2480,992.7 2480,1216.6 	"/>
	<polyline clip-path="url(#SVGID_2_)" fill-rule="evenodd" clip-rule="evenodd" points="1415.6,992.7 1415.6,1216.6 354,1216.6 
		354,992.7 1415.6,992.7 	"/>
	<polyline clip-path="url(#SVGID_2_)" fill-rule="evenodd" clip-rule="evenodd" fill="#FFFFFF" points="354,1216.6 2480,1216.6 
		2480,1219.4 354,1219.4 354,1216.6 	"/>
	<polyline clip-path="url(#SVGID_2_)" fill-rule="evenodd" clip-rule="evenodd" fill="#FFFFFF" points="1415.6,992.7 1418.4,992.7 
		1418.4,1443.4 1415.6,1443.4 1415.6,992.7 	"/>
	
		<line clip-path="url(#SVGID_2_)" fill="none" stroke="#000000" stroke-width="0.3685" stroke-linecap="round" stroke-linejoin="round" stroke-miterlimit="10" x1="354" y1="992.7" x2="1415.6" y2="992.7"/>
	
		<line clip-path="url(#SVGID_2_)" fill="none" stroke="#000000" stroke-width="0.3685" stroke-linecap="round" stroke-linejoin="round" stroke-miterlimit="10" x1="2480" y1="992.7" x2="2480" y2="1216.6"/>
	
		<line clip-path="url(#SVGID_2_)" fill="none" stroke="#000000" stroke-width="0.3685" stroke-linecap="round" stroke-linejoin="round" stroke-miterlimit="10" x1="2480" y1="1443.4" x2="1422.7" y2="1443.4"/>
	
		<line clip-path="url(#SVGID_2_)" fill="none" stroke="#000000" stroke-width="0.3685" stroke-linecap="round" stroke-linejoin="round" stroke-miterlimit="10" x1="711.2" y1="1443.4" x2="1411.3" y2="1443.4"/>
	
		<line clip-path="url(#SVGID_2_)" fill="none" stroke="#000000" stroke-width="0.3685" stroke-linecap="round" stroke-linejoin="round" stroke-miterlimit="10" x1="2122.8" y1="1443.4" x2="2122.8" y2="1466.3"/>
	
		<line clip-path="url(#SVGID_2_)" fill="none" stroke="#000000" stroke-width="0.3685" stroke-linecap="round" stroke-linejoin="round" stroke-miterlimit="10" x1="711.2" y1="1443.4" x2="711.2" y2="1466.3"/>
	
		<line clip-path="url(#SVGID_2_)" fill="none" stroke="#000000" stroke-width="0.3685" stroke-linecap="round" stroke-linejoin="round" stroke-miterlimit="10" x1="2120.2" y1="1469.1" x2="1977.3" y2="1481.1"/>
	
		<line clip-path="url(#SVGID_2_)" fill="none" stroke="#000000" stroke-width="0.3685" stroke-linecap="round" stroke-linejoin="round" stroke-miterlimit="10" x1="713.8" y1="1469.1" x2="858.1" y2="1481.1"/>
	
		<line clip-path="url(#SVGID_2_)" fill="none" stroke="#000000" stroke-width="0.3685" stroke-linecap="round" stroke-linejoin="round" stroke-miterlimit="10" x1="1391.2" y1="1485.9" x2="1920.8" y2="1485.9"/>
	
		<line clip-path="url(#SVGID_2_)" fill="none" stroke="#000000" stroke-width="0.3685" stroke-linecap="round" stroke-linejoin="round" stroke-miterlimit="10" x1="1391.2" y1="1485.9" x2="914.6" y2="1485.9"/>
	
		<line clip-path="url(#SVGID_2_)" fill="none" stroke="#000000" stroke-width="0.3685" stroke-linecap="round" stroke-linejoin="round" stroke-miterlimit="10" x1="858.1" y1="1481.1" x2="828.3" y2="1838.3"/>
	
		<line clip-path="url(#SVGID_2_)" fill="none" stroke="#000000" stroke-width="0.3685" stroke-linecap="round" stroke-linejoin="round" stroke-miterlimit="10" x1="831.1" y1="1841.3" x2="854" y2="1841.3"/>
	
		<line clip-path="url(#SVGID_2_)" fill="none" stroke="#000000" stroke-width="0.3685" stroke-linecap="round" stroke-linejoin="round" stroke-miterlimit="10" x1="856.8" y1="1839" x2="914.6" y2="1485.9"/>
	
		<line clip-path="url(#SVGID_2_)" fill="none" stroke="#000000" stroke-width="0.3685" stroke-linecap="round" stroke-linejoin="round" stroke-miterlimit="10" x1="1977.3" y1="1481.1" x2="2007.4" y2="1838.2"/>
	
		<line clip-path="url(#SVGID_2_)" fill="none" stroke="#000000" stroke-width="0.3685" stroke-linecap="round" stroke-linejoin="round" stroke-miterlimit="10" x1="2004.6" y1="1841.3" x2="1981.7" y2="1841.3"/>
	
		<line clip-path="url(#SVGID_2_)" fill="none" stroke="#000000" stroke-width="0.3685" stroke-linecap="round" stroke-linejoin="round" stroke-miterlimit="10" x1="1978.9" y1="1838.9" x2="1920.8" y2="1485.9"/>
	
		<line clip-path="url(#SVGID_2_)" fill="none" stroke="#000000" stroke-width="0.3685" stroke-linecap="round" stroke-linejoin="round" stroke-miterlimit="10" x1="1415.6" y1="992.7" x2="1415.6" y2="1216.6"/>
	
		<line clip-path="url(#SVGID_2_)" fill="none" stroke="#000000" stroke-width="0.3685" stroke-linecap="round" stroke-linejoin="round" stroke-miterlimit="10" x1="1418.4" y1="992.7" x2="1418.4" y2="1216.6"/>
	
		<line clip-path="url(#SVGID_2_)" fill="none" stroke="#000000" stroke-width="0.3685" stroke-linecap="round" stroke-linejoin="round" stroke-miterlimit="10" x1="354" y1="1216.6" x2="1415.6" y2="1216.6"/>
	
		<line clip-path="url(#SVGID_2_)" fill="none" stroke="#000000" stroke-width="0.3685" stroke-linecap="round" stroke-linejoin="round" stroke-miterlimit="10" x1="2480" y1="1219.4" x2="1418.4" y2="1219.4"/>
	
		<line clip-path="url(#SVGID_2_)" fill="none" stroke="#000000" stroke-width="0.3685" stroke-linecap="round" stroke-linejoin="round" stroke-miterlimit="10" x1="1418.4" y1="1216.6" x2="2480" y2="1216.6"/>
	
		<line clip-path="url(#SVGID_2_)" fill="none" stroke="#000000" stroke-width="0.3685" stroke-linecap="round" stroke-linejoin="round" stroke-miterlimit="10" x1="1415.6" y1="1219.4" x2="1415.6" y2="1443.4"/>
	
		<line clip-path="url(#SVGID_2_)" fill="none" stroke="#000000" stroke-width="0.3685" stroke-linecap="round" stroke-linejoin="round" stroke-miterlimit="10" x1="1418.4" y1="1219.4" x2="1418.4" y2="1443.4"/>
	
		<line clip-path="url(#SVGID_2_)" fill="none" stroke="#000000" stroke-width="0.3685" stroke-linecap="round" stroke-linejoin="round" stroke-miterlimit="10" x1="1415.6" y1="1219.4" x2="354" y2="1219.4"/>
	
		<line clip-path="url(#SVGID_2_)" fill="none" stroke="#000000" stroke-width="0.3685" stroke-linecap="round" stroke-linejoin="round" stroke-miterlimit="10" x1="354" y1="1216.6" x2="354" y2="992.7"/>
	
		<line clip-path="url(#SVGID_2_)" fill="none" stroke="#000000" stroke-width="0.3685" stroke-linecap="round" stroke-linejoin="round" stroke-miterlimit="10" x1="354" y1="1219.4" x2="354" y2="1443.4"/>
	
		<line clip-path="url(#SVGID_2_)" fill="none" stroke="#000000" stroke-width="0.3685" stroke-linecap="round" stroke-linejoin="round" stroke-miterlimit="10" x1="1418.4" y1="992.7" x2="2480" y2="992.7"/>
	
		<line clip-path="url(#SVGID_2_)" fill="none" stroke="#000000" stroke-width="0.3685" stroke-linecap="round" stroke-linejoin="round" stroke-miterlimit="10" x1="1422.7" y1="1443.4" x2="2122.8" y2="1443.4"/>
	
		<line clip-path="url(#SVGID_2_)" fill="none" stroke="#000000" stroke-width="0.3685" stroke-linecap="round" stroke-linejoin="round" stroke-miterlimit="10" x1="1411.3" y1="1443.4" x2="354" y2="1443.4"/>
	
		<line clip-path="url(#SVGID_2_)" fill="none" stroke="#000000" stroke-width="0.3685" stroke-linecap="round" stroke-linejoin="round" stroke-miterlimit="10" x1="1422.7" y1="1443.4" x2="1418.4" y2="1443.4"/>
	
		<line clip-path="url(#SVGID_2_)" fill="none" stroke="#000000" stroke-width="0.3685" stroke-linecap="round" stroke-linejoin="round" stroke-miterlimit="10" x1="2480" y1="1219.4" x2="2480" y2="1443.4"/>
	
		<line clip-path="url(#SVGID_2_)" fill="none" stroke="#000000" stroke-width="0.3685" stroke-linecap="round" stroke-linejoin="round" stroke-miterlimit="10" x1="1415.6" y1="1443.4" x2="1411.3" y2="1443.4"/>
	<g clip-path="url(#SVGID_2_)">
		<defs>
			<polyline id="SVGID_3_" points="21,21 2813,21 2813,2813 21,2813 21,21 			"/>
		</defs>
		<clipPath id="SVGID_4_">
			<use xlink:href="#SVGID_3_"  overflow="visible"/>
		</clipPath>
		
			<path clip-path="url(#SVGID_4_)" fill="none" stroke="#000000" stroke-width="0.3685" stroke-linecap="round" stroke-linejoin="round" stroke-miterlimit="10" d="
			M2122.8,1466.3c0,1.5-1.1,2.7-2.6,2.8"/>
	</g>
	<g clip-path="url(#SVGID_2_)">
		<defs>
			<polyline id="SVGID_5_" points="21,21 2813,21 2813,2813 21,2813 21,21 			"/>
		</defs>
		<clipPath id="SVGID_6_">
			<use xlink:href="#SVGID_5_"  overflow="visible"/>
		</clipPath>
		
			<path clip-path="url(#SVGID_6_)" fill="none" stroke="#000000" stroke-width="0.3685" stroke-linecap="round" stroke-linejoin="round" stroke-miterlimit="10" d="
			M2007.4,1838.2c0,0.1,0,0.2,0,0.2c0,1.6-1.3,2.8-2.8,2.8"/>
	</g>
	<g clip-path="url(#SVGID_2_)">
		<defs>
			<polyline id="SVGID_7_" points="21,21 2813,21 2813,2813 21,2813 21,21 			"/>
		</defs>
		<clipPath id="SVGID_8_">
			<use xlink:href="#SVGID_7_"  overflow="visible"/>
		</clipPath>
		
			<path clip-path="url(#SVGID_8_)" fill="none" stroke="#000000" stroke-width="0.3685" stroke-linecap="round" stroke-linejoin="round" stroke-miterlimit="10" d="
			M1981.7,1841.3c-1.4,0-2.6-1-2.8-2.4"/>
	</g>
	<g clip-path="url(#SVGID_2_)">
		<defs>
			<polyline id="SVGID_9_" points="21,21 2813,21 2813,2813 21,2813 21,21 			"/>
		</defs>
		<clipPath id="SVGID_10_">
			<use xlink:href="#SVGID_9_"  overflow="visible"/>
		</clipPath>
		
			<path clip-path="url(#SVGID_10_)" fill="none" stroke="#000000" stroke-width="0.3685" stroke-linecap="round" stroke-linejoin="round" stroke-miterlimit="10" d="
			M856.8,1839c-0.2,1.4-1.4,2.4-2.8,2.4"/>
	</g>
	<g clip-path="url(#SVGID_2_)">
		<defs>
			<polyline id="SVGID_11_" points="21,21 2813,21 2813,2813 21,2813 21,21 			"/>
		</defs>
		<clipPath id="SVGID_12_">
			<use xlink:href="#SVGID_11_"  overflow="visible"/>
		</clipPath>
		
			<path clip-path="url(#SVGID_12_)" fill="none" stroke="#000000" stroke-width="0.3685" stroke-linecap="round" stroke-linejoin="round" stroke-miterlimit="10" d="
			M831.1,1841.3c-1.6,0-2.8-1.3-2.8-2.8c0-0.1,0-0.2,0-0.2"/>
	</g>
	<g clip-path="url(#SVGID_2_)">
		<defs>
			<polyline id="SVGID_13_" points="21,21 2813,21 2813,2813 21,2813 21,21 			"/>
		</defs>
		<clipPath id="SVGID_14_">
			<use xlink:href="#SVGID_13_"  overflow="visible"/>
		</clipPath>
		
			<path clip-path="url(#SVGID_14_)" fill="none" stroke="#000000" stroke-width="0.3685" stroke-linecap="round" stroke-linejoin="round" stroke-miterlimit="10" d="
			M713.8,1469.1c-1.5-0.1-2.6-1.3-2.6-2.8"/>
	</g>
</g>
</svg>
