<?xml version="1.0" encoding="utf-8"?>
<!-- Generator: Adobe Illustrator 18.1.0, SVG Export Plug-In . SVG Version: 6.00 Build 0)  -->
<svg version="1.1" id="Layer_1" xmlns="http://www.w3.org/2000/svg" xmlns:xlink="http://www.w3.org/1999/xlink" x="0px" y="0px"
	 viewBox="0 0 2834.6 2834.6" enable-background="new 0 0 2834.6 2834.6" xml:space="preserve">
<text transform="matrix(1 0 0 1 22 2812.0063)"><tspan x="0" y="0" fill="#FFFFFF" font-family="'ArialMT'" font-size="4">GSPublishe</tspan><tspan x="21.1" y="0" fill="#FFFFFF" font-family="'ArialMT'" font-size="4">rEngine</tspan><tspan x="34.8" y="0" fill="#FFFFFF" font-family="'ArialMT'" font-size="4"> </tspan></text>
<text transform="matrix(1 0 0 1 57.92 2812.0063)" fill="#FFFFFF" font-family="'ArialMT'" font-size="4">0.18.100.100</text>
<line fill="none" stroke="#000000" stroke-width="0.2835" stroke-linecap="round" stroke-linejoin="round" stroke-miterlimit="10" x1="128.1" y1="2810.6" x2="129.2" y2="2810.4"/>
<g>
	<defs>
		<polyline id="SVGID_1_" points="21,21 2813,21 2813,2813 21,2813 21,21 		"/>
	</defs>
	<clipPath id="SVGID_2_">
		<use xlink:href="#SVGID_1_"  overflow="visible"/>
	</clipPath>
	<polyline clip-path="url(#SVGID_2_)" fill-rule="evenodd" clip-rule="evenodd" fill="#FFFFFF" points="716.9,1259 731.8,1259 
		620.8,1596.1 620.2,1599.3 620.5,1602.4 621.8,1605.3 623.8,1607.7 626.5,1609.5 629.5,1610.4 632.7,1610.3 635.7,1609.4 
		638.3,1607.6 640.3,1605.1 840.1,1259 856.5,1259 652.6,1612.2 649.9,1615.9 646.6,1619.1 642.8,1621.7 638.6,1623.5 634.1,1624.4 
		629.5,1624.6 624.9,1623.9 620.6,1622.4 616.6,1620.1 613.1,1617.1 610.2,1613.5 608,1609.5 606.6,1605.1 606,1600.6 606.3,1596 
		607.4,1591.5 716.9,1259 	"/>
	<polyline clip-path="url(#SVGID_2_)" fill-rule="evenodd" clip-rule="evenodd" fill="#FFFFFF" points="1977.5,1259 1993.9,1259 
		2193.7,1605.1 2195.7,1607.6 2198.3,1609.4 2201.3,1610.3 2204.5,1610.4 2207.5,1609.5 2210.2,1607.7 2212.2,1605.3 2213.5,1602.4 
		2213.8,1599.3 2213.2,1596.1 2102.2,1259 2117.1,1259 2226.6,1591.5 2227.7,1596 2228,1600.6 2227.4,1605.1 2226,1609.5 
		2223.8,1613.5 2220.9,1617.1 2217.4,1620.1 2213.4,1622.4 2209.1,1623.9 2204.5,1624.6 2199.9,1624.4 2195.5,1623.5 2191.2,1621.7 
		2187.4,1619.1 2184.1,1615.9 2181.4,1612.2 1977.5,1259 	"/>
	<polyline clip-path="url(#SVGID_2_)" fill-rule="evenodd" clip-rule="evenodd" fill="#FFFFFF" points="2434.9,1259 399.1,1259 
		398,1258.8 397.1,1258.2 354.4,1215.5 354,1214.5 354,1210.8 354.4,1209.8 355.4,1209.4 2478.6,1209.4 2479.6,1209.8 2480,1210.8 
		2480,1214.5 2479.6,1215.5 2436.9,1258.2 2436,1258.8 2434.9,1259 	"/>
	
		<line clip-path="url(#SVGID_2_)" fill="none" stroke="#000000" stroke-width="0.7087" stroke-linecap="round" stroke-linejoin="round" stroke-miterlimit="10" x1="399.1" y1="1259" x2="716.9" y2="1259"/>
	
		<line clip-path="url(#SVGID_2_)" fill="none" stroke="#000000" stroke-width="0.7087" stroke-linecap="round" stroke-linejoin="round" stroke-miterlimit="10" x1="354" y1="1214.5" x2="354" y2="1210.8"/>
	
		<line clip-path="url(#SVGID_2_)" fill="none" stroke="#000000" stroke-width="0.7087" stroke-linecap="round" stroke-linejoin="round" stroke-miterlimit="10" x1="355.4" y1="1209.4" x2="2478.6" y2="1209.4"/>
	
		<line clip-path="url(#SVGID_2_)" fill="none" stroke="#000000" stroke-width="0.7087" stroke-linecap="round" stroke-linejoin="round" stroke-miterlimit="10" x1="2480" y1="1210.8" x2="2480" y2="1214.5"/>
	
		<line clip-path="url(#SVGID_2_)" fill="none" stroke="#000000" stroke-width="0.7087" stroke-linecap="round" stroke-linejoin="round" stroke-miterlimit="10" x1="354.4" y1="1215.5" x2="397.1" y2="1258.2"/>
	
		<line clip-path="url(#SVGID_2_)" fill="none" stroke="#000000" stroke-width="0.7087" stroke-linecap="round" stroke-linejoin="round" stroke-miterlimit="10" x1="2479.6" y1="1215.5" x2="2436.9" y2="1258.2"/>
	
		<line clip-path="url(#SVGID_2_)" fill="none" stroke="#000000" stroke-width="0.3685" stroke-linecap="round" stroke-linejoin="round" stroke-miterlimit="10" x1="856.5" y1="1259" x2="652.6" y2="1612.2"/>
	
		<line clip-path="url(#SVGID_2_)" fill="none" stroke="#000000" stroke-width="0.3685" stroke-linecap="round" stroke-linejoin="round" stroke-miterlimit="10" x1="840.1" y1="1259" x2="640.3" y2="1605.1"/>
	
		<line clip-path="url(#SVGID_2_)" fill="none" stroke="#000000" stroke-width="0.3685" stroke-linecap="round" stroke-linejoin="round" stroke-miterlimit="10" x1="731.8" y1="1259" x2="620.8" y2="1596.1"/>
	
		<line clip-path="url(#SVGID_2_)" fill="none" stroke="#000000" stroke-width="0.3685" stroke-linecap="round" stroke-linejoin="round" stroke-miterlimit="10" x1="716.9" y1="1259" x2="607.4" y2="1591.5"/>
	
		<line clip-path="url(#SVGID_2_)" fill="none" stroke="#000000" stroke-width="0.3685" stroke-linecap="round" stroke-linejoin="round" stroke-miterlimit="10" x1="2102.2" y1="1259" x2="2213.2" y2="1596.1"/>
	
		<line clip-path="url(#SVGID_2_)" fill="none" stroke="#000000" stroke-width="0.3685" stroke-linecap="round" stroke-linejoin="round" stroke-miterlimit="10" x1="2117.1" y1="1259" x2="2226.6" y2="1591.5"/>
	
		<line clip-path="url(#SVGID_2_)" fill="none" stroke="#000000" stroke-width="0.3685" stroke-linecap="round" stroke-linejoin="round" stroke-miterlimit="10" x1="1977.5" y1="1259" x2="2181.4" y2="1612.2"/>
	
		<line clip-path="url(#SVGID_2_)" fill="none" stroke="#000000" stroke-width="0.3685" stroke-linecap="round" stroke-linejoin="round" stroke-miterlimit="10" x1="1993.9" y1="1259" x2="2193.7" y2="1605.1"/>
	
		<line clip-path="url(#SVGID_2_)" fill="none" stroke="#000000" stroke-width="0.7087" stroke-linecap="round" stroke-linejoin="round" stroke-miterlimit="10" x1="731.8" y1="1259" x2="840.1" y2="1259"/>
	
		<line clip-path="url(#SVGID_2_)" fill="none" stroke="#000000" stroke-width="0.7087" stroke-linecap="round" stroke-linejoin="round" stroke-miterlimit="10" x1="856.5" y1="1259" x2="1977.5" y2="1259"/>
	
		<line clip-path="url(#SVGID_2_)" fill="none" stroke="#000000" stroke-width="0.7087" stroke-linecap="round" stroke-linejoin="round" stroke-miterlimit="10" x1="1993.9" y1="1259" x2="2102.2" y2="1259"/>
	
		<line clip-path="url(#SVGID_2_)" fill="none" stroke="#000000" stroke-width="0.7087" stroke-linecap="round" stroke-linejoin="round" stroke-miterlimit="10" x1="2117.1" y1="1259" x2="2434.9" y2="1259"/>
	
		<line clip-path="url(#SVGID_2_)" fill="none" stroke="#000000" stroke-width="0.7087" stroke-linecap="round" stroke-linejoin="round" stroke-miterlimit="10" x1="716.9" y1="1259" x2="731.8" y2="1259"/>
	
		<line clip-path="url(#SVGID_2_)" fill="none" stroke="#000000" stroke-width="0.7087" stroke-linecap="round" stroke-linejoin="round" stroke-miterlimit="10" x1="840.1" y1="1259" x2="856.5" y2="1259"/>
	
		<line clip-path="url(#SVGID_2_)" fill="none" stroke="#000000" stroke-width="0.7087" stroke-linecap="round" stroke-linejoin="round" stroke-miterlimit="10" x1="1977.5" y1="1259" x2="1993.9" y2="1259"/>
	
		<line clip-path="url(#SVGID_2_)" fill="none" stroke="#000000" stroke-width="0.7087" stroke-linecap="round" stroke-linejoin="round" stroke-miterlimit="10" x1="2102.2" y1="1259" x2="2117.1" y2="1259"/>
	<g clip-path="url(#SVGID_2_)">
		<defs>
			<polyline id="SVGID_3_" points="21,21 2813,21 2813,2813 21,2813 21,21 			"/>
		</defs>
		<clipPath id="SVGID_4_">
			<use xlink:href="#SVGID_3_"  overflow="visible"/>
		</clipPath>
		
			<path clip-path="url(#SVGID_4_)" fill="none" stroke="#000000" stroke-width="0.3685" stroke-linecap="round" stroke-linejoin="round" stroke-miterlimit="10" d="
			M640.3,1605.1c-1.9,3.3-5.5,5.4-9.3,5.4c-6,0-10.8-4.8-10.8-10.8c0-1.2,0.2-2.4,0.6-3.5"/>
	</g>
	<g clip-path="url(#SVGID_2_)">
		<defs>
			<polyline id="SVGID_5_" points="21,21 2813,21 2813,2813 21,2813 21,21 			"/>
		</defs>
		<clipPath id="SVGID_6_">
			<use xlink:href="#SVGID_5_"  overflow="visible"/>
		</clipPath>
		
			<path clip-path="url(#SVGID_6_)" fill="none" stroke="#000000" stroke-width="0.3685" stroke-linecap="round" stroke-linejoin="round" stroke-miterlimit="10" d="
			M652.6,1612.2c-4.5,7.7-12.7,12.4-21.6,12.4c-13.8,0-25-11.2-25-25c0-2.8,0.5-5.5,1.4-8.2"/>
	</g>
	<g clip-path="url(#SVGID_2_)">
		<defs>
			<polyline id="SVGID_7_" points="21,21 2813,21 2813,2813 21,2813 21,21 			"/>
		</defs>
		<clipPath id="SVGID_8_">
			<use xlink:href="#SVGID_7_"  overflow="visible"/>
		</clipPath>
		
			<path clip-path="url(#SVGID_8_)" fill="none" stroke="#000000" stroke-width="0.3685" stroke-linecap="round" stroke-linejoin="round" stroke-miterlimit="10" d="
			M2213.2,1596.1c0.4,1.1,0.6,2.3,0.6,3.5c0,6-4.8,10.8-10.8,10.8c-3.8,0-7.4-2-9.3-5.4"/>
	</g>
	<g clip-path="url(#SVGID_2_)">
		<defs>
			<polyline id="SVGID_9_" points="21,21 2813,21 2813,2813 21,2813 21,21 			"/>
		</defs>
		<clipPath id="SVGID_10_">
			<use xlink:href="#SVGID_9_"  overflow="visible"/>
		</clipPath>
		
			<path clip-path="url(#SVGID_10_)" fill="none" stroke="#000000" stroke-width="0.3685" stroke-linecap="round" stroke-linejoin="round" stroke-miterlimit="10" d="
			M2226.6,1591.5c0.9,2.6,1.4,5.4,1.4,8.2c0,13.8-11.2,25-25,25c-8.9,0-17.1-4.7-21.6-12.4"/>
	</g>
	<g clip-path="url(#SVGID_2_)">
		<defs>
			<polyline id="SVGID_11_" points="21,21 2813,21 2813,2813 21,2813 21,21 			"/>
		</defs>
		<clipPath id="SVGID_12_">
			<use xlink:href="#SVGID_11_"  overflow="visible"/>
		</clipPath>
		
			<path clip-path="url(#SVGID_12_)" fill="none" stroke="#000000" stroke-width="0.7087" stroke-linecap="round" stroke-linejoin="round" stroke-miterlimit="10" d="
			M354,1210.8c0-0.8,0.6-1.4,1.4-1.4"/>
	</g>
	<g clip-path="url(#SVGID_2_)">
		<defs>
			<polyline id="SVGID_13_" points="21,21 2813,21 2813,2813 21,2813 21,21 			"/>
		</defs>
		<clipPath id="SVGID_14_">
			<use xlink:href="#SVGID_13_"  overflow="visible"/>
		</clipPath>
		
			<path clip-path="url(#SVGID_14_)" fill="none" stroke="#000000" stroke-width="0.7087" stroke-linecap="round" stroke-linejoin="round" stroke-miterlimit="10" d="
			M354.4,1215.5c-0.3-0.3-0.4-0.6-0.4-1"/>
	</g>
	<g clip-path="url(#SVGID_2_)">
		<defs>
			<polyline id="SVGID_15_" points="21,21 2813,21 2813,2813 21,2813 21,21 			"/>
		</defs>
		<clipPath id="SVGID_16_">
			<use xlink:href="#SVGID_15_"  overflow="visible"/>
		</clipPath>
		
			<path clip-path="url(#SVGID_16_)" fill="none" stroke="#000000" stroke-width="0.7087" stroke-linecap="round" stroke-linejoin="round" stroke-miterlimit="10" d="
			M399.1,1259c-0.8,0-1.5-0.3-2-0.8"/>
	</g>
	<g clip-path="url(#SVGID_2_)">
		<defs>
			<polyline id="SVGID_17_" points="21,21 2813,21 2813,2813 21,2813 21,21 			"/>
		</defs>
		<clipPath id="SVGID_18_">
			<use xlink:href="#SVGID_17_"  overflow="visible"/>
		</clipPath>
		
			<path clip-path="url(#SVGID_18_)" fill="none" stroke="#000000" stroke-width="0.7087" stroke-linecap="round" stroke-linejoin="round" stroke-miterlimit="10" d="
			M2478.6,1209.4c0.8,0,1.4,0.6,1.4,1.4"/>
	</g>
	<g clip-path="url(#SVGID_2_)">
		<defs>
			<polyline id="SVGID_19_" points="21,21 2813,21 2813,2813 21,2813 21,21 			"/>
		</defs>
		<clipPath id="SVGID_20_">
			<use xlink:href="#SVGID_19_"  overflow="visible"/>
		</clipPath>
		
			<path clip-path="url(#SVGID_20_)" fill="none" stroke="#000000" stroke-width="0.7087" stroke-linecap="round" stroke-linejoin="round" stroke-miterlimit="10" d="
			M2480,1214.5c0,0.4-0.2,0.7-0.4,1"/>
	</g>
	<g clip-path="url(#SVGID_2_)">
		<defs>
			<polyline id="SVGID_21_" points="21,21 2813,21 2813,2813 21,2813 21,21 			"/>
		</defs>
		<clipPath id="SVGID_22_">
			<use xlink:href="#SVGID_21_"  overflow="visible"/>
		</clipPath>
		
			<path clip-path="url(#SVGID_22_)" fill="none" stroke="#000000" stroke-width="0.7087" stroke-linecap="round" stroke-linejoin="round" stroke-miterlimit="10" d="
			M2436.9,1258.2c-0.5,0.5-1.3,0.8-2,0.8"/>
	</g>
</g>
</svg>
