<?xml version="1.0" encoding="utf-8"?>
<!-- Generator: Adobe Illustrator 18.1.0, SVG Export Plug-In . SVG Version: 6.00 Build 0)  -->
<svg version="1.1" id="Layer_1" xmlns="http://www.w3.org/2000/svg" xmlns:xlink="http://www.w3.org/1999/xlink" x="0px" y="0px"
	 viewBox="0 0 2834.6 2834.6" enable-background="new 0 0 2834.6 2834.6" xml:space="preserve">
<text transform="matrix(1 0 0 1 22 2812.0063)"><tspan x="0" y="0" fill="#FFFFFF" font-family="'ArialMT'" font-size="4">GSPublishe</tspan><tspan x="21.1" y="0" fill="#FFFFFF" font-family="'ArialMT'" font-size="4">rEngine</tspan><tspan x="34.8" y="0" fill="#FFFFFF" font-family="'ArialMT'" font-size="4"> </tspan></text>
<text transform="matrix(1 0 0 1 57.92 2812.0063)" fill="#FFFFFF" font-family="'ArialMT'" font-size="4">0.50.100.100</text>
<line fill="none" stroke="#000000" stroke-width="0.2835" stroke-linecap="round" stroke-linejoin="round" stroke-miterlimit="10" x1="135.1" y1="2810.6" x2="136.3" y2="2810.4"/>
<g>
	<defs>
		<polyline id="SVGID_1_" points="21,21 2813,21 2813,2813 21,2813 21,21 		"/>
	</defs>
	<clipPath id="SVGID_2_">
		<use xlink:href="#SVGID_1_"  overflow="visible"/>
	</clipPath>
	<polyline clip-path="url(#SVGID_2_)" fill-rule="evenodd" clip-rule="evenodd" fill="#FFFFFF" points="945.7,1320 1888.3,1320 
		1888.3,1330.1 1887.9,1331 1887,1331.5 1739.3,1345.7 1775.7,1725 1775.6,1725.8 1775.1,1726.4 1774.3,1726.6 1763,1726.6 
		1762,1726.2 1761.5,1725.4 1711.1,1348.4 1122.9,1348.4 1072.5,1725.4 1072,1726.2 1071.1,1726.6 1059.7,1726.6 1058.9,1726.4 
		1058.4,1725.8 1058.3,1725 1094.7,1345.7 947,1331.5 946.1,1331 945.7,1330.1 945.7,1320 	"/>
	<polyline clip-path="url(#SVGID_2_)" fill-rule="evenodd" clip-rule="evenodd" fill="#FFFFFF" points="2243.3,1131.5 590.7,1131.5 
		568,1107.4 2266,1107.4 2243.3,1131.5 	"/>
	<polyline clip-path="url(#SVGID_2_)" fill-rule="evenodd" clip-rule="evenodd" fill="#FFFFFF" points="2243.3,1131.5 
		2267.4,1108.8 2267.4,1318.6 2243.3,1295.9 2243.3,1131.5 	"/>
	<polyline clip-path="url(#SVGID_2_)" fill-rule="evenodd" clip-rule="evenodd" fill="#FFFFFF" points="2243.3,1295.9 2266,1320 
		568,1320 590.7,1295.9 2243.3,1295.9 	"/>
	<polyline clip-path="url(#SVGID_2_)" fill-rule="evenodd" clip-rule="evenodd" fill="#FFFFFF" points="590.7,1131.5 590.7,1295.9 
		566.6,1318.6 566.6,1108.8 590.7,1131.5 	"/>
	<polyline clip-path="url(#SVGID_2_)" fill-rule="evenodd" clip-rule="evenodd" fill="#FFFFFF" points="590.7,1131.5 566.6,1108.8 
		567,1107.8 568,1107.4 590.7,1131.5 	"/>
	<polyline clip-path="url(#SVGID_2_)" fill-rule="evenodd" clip-rule="evenodd" fill="#FFFFFF" points="590.7,1295.9 568,1320 
		567,1319.6 566.6,1318.6 590.7,1295.9 	"/>
	<polyline clip-path="url(#SVGID_2_)" fill-rule="evenodd" clip-rule="evenodd" fill="#FFFFFF" points="2243.3,1295.9 
		2267.4,1318.6 2267,1319.6 2266,1320 2243.3,1295.9 	"/>
	<polyline clip-path="url(#SVGID_2_)" fill-rule="evenodd" clip-rule="evenodd" fill="#FFFFFF" points="2243.3,1131.5 2266,1107.4 
		2267,1107.8 2267.4,1108.8 2243.3,1131.5 	"/>
	
		<line clip-path="url(#SVGID_2_)" fill="none" stroke="#000000" stroke-width="0.3685" stroke-linecap="round" stroke-linejoin="round" stroke-miterlimit="10" x1="568" y1="1107.4" x2="2266" y2="1107.4"/>
	
		<line clip-path="url(#SVGID_2_)" fill="none" stroke="#000000" stroke-width="0.3685" stroke-linecap="round" stroke-linejoin="round" stroke-miterlimit="10" x1="2267.4" y1="1108.8" x2="2267.4" y2="1318.6"/>
	
		<line clip-path="url(#SVGID_2_)" fill="none" stroke="#000000" stroke-width="0.3685" stroke-linecap="round" stroke-linejoin="round" stroke-miterlimit="10" x1="2266" y1="1320" x2="568" y2="1320"/>
	
		<line clip-path="url(#SVGID_2_)" fill="none" stroke="#000000" stroke-width="0.3685" stroke-linecap="round" stroke-linejoin="round" stroke-miterlimit="10" x1="566.6" y1="1318.6" x2="566.6" y2="1108.8"/>
	
		<line clip-path="url(#SVGID_2_)" fill="none" stroke="#000000" stroke-width="0.3685" stroke-linecap="round" stroke-linejoin="round" stroke-miterlimit="10" x1="590.7" y1="1131.5" x2="2243.3" y2="1131.5"/>
	
		<line clip-path="url(#SVGID_2_)" fill="none" stroke="#000000" stroke-width="0.3685" stroke-linecap="round" stroke-linejoin="round" stroke-miterlimit="10" x1="590.7" y1="1295.9" x2="2243.3" y2="1295.9"/>
	
		<line clip-path="url(#SVGID_2_)" fill="none" stroke="#000000" stroke-width="0.3685" stroke-linecap="round" stroke-linejoin="round" stroke-miterlimit="10" x1="590.7" y1="1295.9" x2="590.7" y2="1131.5"/>
	
		<line clip-path="url(#SVGID_2_)" fill="none" stroke="#000000" stroke-width="0.3685" stroke-linecap="round" stroke-linejoin="round" stroke-miterlimit="10" x1="2243.3" y1="1131.5" x2="2243.3" y2="1295.9"/>
	
		<line clip-path="url(#SVGID_2_)" fill="none" stroke="#000000" stroke-width="0.3685" stroke-linecap="round" stroke-linejoin="round" stroke-miterlimit="10" x1="945.7" y1="1320" x2="1888.3" y2="1320"/>
	
		<line clip-path="url(#SVGID_2_)" fill="none" stroke="#000000" stroke-width="0.3685" stroke-linecap="round" stroke-linejoin="round" stroke-miterlimit="10" x1="1888.3" y1="1320" x2="1888.3" y2="1330.1"/>
	
		<line clip-path="url(#SVGID_2_)" fill="none" stroke="#000000" stroke-width="0.3685" stroke-linecap="round" stroke-linejoin="round" stroke-miterlimit="10" x1="945.7" y1="1320" x2="945.7" y2="1330.1"/>
	
		<line clip-path="url(#SVGID_2_)" fill="none" stroke="#000000" stroke-width="0.3685" stroke-linecap="round" stroke-linejoin="round" stroke-miterlimit="10" x1="1417" y1="1348.4" x2="1122.9" y2="1348.4"/>
	
		<line clip-path="url(#SVGID_2_)" fill="none" stroke="#000000" stroke-width="0.3685" stroke-linecap="round" stroke-linejoin="round" stroke-miterlimit="10" x1="1417" y1="1348.4" x2="1711.1" y2="1348.4"/>
	
		<line clip-path="url(#SVGID_2_)" fill="none" stroke="#000000" stroke-width="0.3685" stroke-linecap="round" stroke-linejoin="round" stroke-miterlimit="10" x1="1094.7" y1="1345.7" x2="947" y2="1331.5"/>
	
		<line clip-path="url(#SVGID_2_)" fill="none" stroke="#000000" stroke-width="0.3685" stroke-linecap="round" stroke-linejoin="round" stroke-miterlimit="10" x1="1739.3" y1="1345.7" x2="1887" y2="1331.5"/>
	
		<line clip-path="url(#SVGID_2_)" fill="none" stroke="#000000" stroke-width="0.3685" stroke-linecap="round" stroke-linejoin="round" stroke-miterlimit="10" x1="1058.3" y1="1725" x2="1094.7" y2="1345.7"/>
	
		<line clip-path="url(#SVGID_2_)" fill="none" stroke="#000000" stroke-width="0.3685" stroke-linecap="round" stroke-linejoin="round" stroke-miterlimit="10" x1="1059.7" y1="1726.6" x2="1071.1" y2="1726.6"/>
	
		<line clip-path="url(#SVGID_2_)" fill="none" stroke="#000000" stroke-width="0.3685" stroke-linecap="round" stroke-linejoin="round" stroke-miterlimit="10" x1="1072.5" y1="1725.4" x2="1122.9" y2="1348.4"/>
	
		<line clip-path="url(#SVGID_2_)" fill="none" stroke="#000000" stroke-width="0.3685" stroke-linecap="round" stroke-linejoin="round" stroke-miterlimit="10" x1="1775.7" y1="1725" x2="1739.3" y2="1345.7"/>
	
		<line clip-path="url(#SVGID_2_)" fill="none" stroke="#000000" stroke-width="0.3685" stroke-linecap="round" stroke-linejoin="round" stroke-miterlimit="10" x1="1774.3" y1="1726.6" x2="1763" y2="1726.6"/>
	
		<line clip-path="url(#SVGID_2_)" fill="none" stroke="#000000" stroke-width="0.3685" stroke-linecap="round" stroke-linejoin="round" stroke-miterlimit="10" x1="1761.5" y1="1725.4" x2="1711.1" y2="1348.4"/>
	<g clip-path="url(#SVGID_2_)">
		<defs>
			<polyline id="SVGID_3_" points="21,21 2813,21 2813,2813 21,2813 21,21 			"/>
		</defs>
		<clipPath id="SVGID_4_">
			<use xlink:href="#SVGID_3_"  overflow="visible"/>
		</clipPath>
		
			<path clip-path="url(#SVGID_4_)" fill="none" stroke="#000000" stroke-width="0.3685" stroke-linecap="round" stroke-linejoin="round" stroke-miterlimit="10" d="
			M566.6,1108.8c0-0.8,0.6-1.4,1.4-1.4"/>
	</g>
	<g clip-path="url(#SVGID_2_)">
		<defs>
			<polyline id="SVGID_5_" points="21,21 2813,21 2813,2813 21,2813 21,21 			"/>
		</defs>
		<clipPath id="SVGID_6_">
			<use xlink:href="#SVGID_5_"  overflow="visible"/>
		</clipPath>
		
			<path clip-path="url(#SVGID_6_)" fill="none" stroke="#000000" stroke-width="0.3685" stroke-linecap="round" stroke-linejoin="round" stroke-miterlimit="10" d="
			M568,1320c-0.8,0-1.4-0.6-1.4-1.4"/>
	</g>
	<g clip-path="url(#SVGID_2_)">
		<defs>
			<polyline id="SVGID_7_" points="21,21 2813,21 2813,2813 21,2813 21,21 			"/>
		</defs>
		<clipPath id="SVGID_8_">
			<use xlink:href="#SVGID_7_"  overflow="visible"/>
		</clipPath>
		
			<path clip-path="url(#SVGID_8_)" fill="none" stroke="#000000" stroke-width="0.3685" stroke-linecap="round" stroke-linejoin="round" stroke-miterlimit="10" d="
			M947,1331.5c-0.7-0.1-1.3-0.7-1.3-1.4"/>
	</g>
	<g clip-path="url(#SVGID_2_)">
		<defs>
			<polyline id="SVGID_9_" points="21,21 2813,21 2813,2813 21,2813 21,21 			"/>
		</defs>
		<clipPath id="SVGID_10_">
			<use xlink:href="#SVGID_9_"  overflow="visible"/>
		</clipPath>
		
			<path clip-path="url(#SVGID_10_)" fill="none" stroke="#000000" stroke-width="0.3685" stroke-linecap="round" stroke-linejoin="round" stroke-miterlimit="10" d="
			M2266,1107.4c0.8,0,1.4,0.6,1.4,1.4"/>
	</g>
	<g clip-path="url(#SVGID_2_)">
		<defs>
			<polyline id="SVGID_11_" points="21,21 2813,21 2813,2813 21,2813 21,21 			"/>
		</defs>
		<clipPath id="SVGID_12_">
			<use xlink:href="#SVGID_11_"  overflow="visible"/>
		</clipPath>
		
			<path clip-path="url(#SVGID_12_)" fill="none" stroke="#000000" stroke-width="0.3685" stroke-linecap="round" stroke-linejoin="round" stroke-miterlimit="10" d="
			M2267.4,1318.6c0,0.8-0.6,1.4-1.4,1.4"/>
	</g>
	<g clip-path="url(#SVGID_2_)">
		<defs>
			<polyline id="SVGID_13_" points="21,21 2813,21 2813,2813 21,2813 21,21 			"/>
		</defs>
		<clipPath id="SVGID_14_">
			<use xlink:href="#SVGID_13_"  overflow="visible"/>
		</clipPath>
		
			<path clip-path="url(#SVGID_14_)" fill="none" stroke="#000000" stroke-width="0.3685" stroke-linecap="round" stroke-linejoin="round" stroke-miterlimit="10" d="
			M1888.3,1330.1c0,0.7-0.6,1.3-1.3,1.4"/>
	</g>
	<g clip-path="url(#SVGID_2_)">
		<defs>
			<polyline id="SVGID_15_" points="21,21 2813,21 2813,2813 21,2813 21,21 			"/>
		</defs>
		<clipPath id="SVGID_16_">
			<use xlink:href="#SVGID_15_"  overflow="visible"/>
		</clipPath>
		
			<path clip-path="url(#SVGID_16_)" fill="none" stroke="#000000" stroke-width="0.3685" stroke-linecap="round" stroke-linejoin="round" stroke-miterlimit="10" d="
			M1775.7,1725c0,0,0,0.1,0,0.1c0,0.8-0.6,1.4-1.4,1.4"/>
	</g>
	<g clip-path="url(#SVGID_2_)">
		<defs>
			<polyline id="SVGID_17_" points="21,21 2813,21 2813,2813 21,2813 21,21 			"/>
		</defs>
		<clipPath id="SVGID_18_">
			<use xlink:href="#SVGID_17_"  overflow="visible"/>
		</clipPath>
		
			<path clip-path="url(#SVGID_18_)" fill="none" stroke="#000000" stroke-width="0.3685" stroke-linecap="round" stroke-linejoin="round" stroke-miterlimit="10" d="
			M1763,1726.6c-0.7,0-1.3-0.5-1.4-1.2"/>
	</g>
	<g clip-path="url(#SVGID_2_)">
		<defs>
			<polyline id="SVGID_19_" points="21,21 2813,21 2813,2813 21,2813 21,21 			"/>
		</defs>
		<clipPath id="SVGID_20_">
			<use xlink:href="#SVGID_19_"  overflow="visible"/>
		</clipPath>
		
			<path clip-path="url(#SVGID_20_)" fill="none" stroke="#000000" stroke-width="0.3685" stroke-linecap="round" stroke-linejoin="round" stroke-miterlimit="10" d="
			M1059.7,1726.6c-0.8,0-1.4-0.6-1.4-1.4c0,0,0-0.1,0-0.1"/>
	</g>
	<g clip-path="url(#SVGID_2_)">
		<defs>
			<polyline id="SVGID_21_" points="21,21 2813,21 2813,2813 21,2813 21,21 			"/>
		</defs>
		<clipPath id="SVGID_22_">
			<use xlink:href="#SVGID_21_"  overflow="visible"/>
		</clipPath>
		
			<path clip-path="url(#SVGID_22_)" fill="none" stroke="#000000" stroke-width="0.3685" stroke-linecap="round" stroke-linejoin="round" stroke-miterlimit="10" d="
			M1072.5,1725.4c-0.1,0.7-0.7,1.2-1.4,1.2"/>
	</g>
</g>
</svg>
