<?xml version="1.0" encoding="utf-8"?>
<!-- Generator: Adobe Illustrator 21.1.0, SVG Export Plug-In . SVG Version: 6.00 Build 0)  -->
<svg version="1.1" id="Layer_1" xmlns="http://www.w3.org/2000/svg" xmlns:xlink="http://www.w3.org/1999/xlink" x="0px" y="0px"
	 viewBox="0 0 1275.6 1275.6" style="enable-background:new 0 0 1275.6 1275.6;" xml:space="preserve">
<g>
	<rect x="604.7" y="629.5" width="16.5" height="16.5"/>
	<polygon points="747.4,540.2 759.1,551.8 817.4,493.3 817.4,450 654.4,450 654.4,613 817.4,613 817.4,568.1 800.9,568.1 
		800.9,596.5 670.9,596.5 670.9,466.5 800.9,466.5 800.9,486.4 	"/>
	<polygon points="772.5,662.6 772.5,679.1 800.9,679.1 801,800.4 697.7,662.6 654.4,662.6 654.4,825.6 670.9,825.6 670.9,809.1 
		670.9,679.1 690.8,679.1 801,825.6 817.4,825.6 817.4,662.6 	"/>
	<polygon points="577.9,450 539.7,500.9 501.5,450 458.2,450 458.2,613 474.7,613 474.7,596.5 474.7,466.5 494.6,466.5 539.7,526.4 
		584.7,466.5 604.7,466.5 604.7,596.5 604.7,613 621.2,613 621.2,450 	"/>
	<polygon points="576.3,662.6 576.3,679.1 604.7,679.1 604.7,688.9 604.7,809.1 474.7,809.1 474.7,679.1 559.7,679.1 559.7,662.6 
		458.2,662.6 458.2,825.6 621.2,825.6 621.2,825.6 621.2,825.6 621.2,662.6 621.2,662.6 	"/>
</g>
</svg>
