<?xml version="1.0" encoding="utf-8"?>
<svg version="1.1" id="Layer_1" xmlns="http://www.w3.org/2000/svg" xmlns:xlink="http://www.w3.org/1999/xlink" x="0px" y="0px"
	 viewBox="0 0 1275.6 1275.6" style="enable-background:new 0 0 1275.6 1275.6;" xml:space="preserve">
<g>
	<rect x="530.5" y="613.6" width="53.5" height="53.5"/>
	<polygon points="992.8,324.1 1030.6,361.8 1219.6,172.2 1219.6,31.9 691.5,31.9 691.5,560.1 1219.6,560.1 1219.6,414.5
		1166.1,414.5 1166.1,506.5 745,506.6 745,85.3 1166.1,85.4 1166.1,150.1 	"/>
	<polygon points="1074.1,720.6 1074.1,774.1 1166.1,774.1 1166.3,1167 831.7,720.6 691.5,720.6 691.5,1248.8 745,1248.8 745,1195.4
		745,774.1 809.7,774.1 1166.5,1248.8 1219.7,1248.8 1219.7,720.6 	"/>
	<polygon points="443.8,31.9 320,197 196.2,31.9 55.9,31.9 55.9,560 109.4,560 109.4,506.6 109.4,85.4 174.1,85.4 320,279.4
		465.9,85.4 530.6,85.4 530.6,506.6 530.6,560 584.1,560 584.1,31.9 	"/>
	<polygon points="438.5,720.6 438.5,774.1 530.5,774.1 530.6,805.8 530.6,1195.3 109.3,1195.3 109.3,774.1 384.9,774.1 384.9,720.6 
		55.9,720.6 55.9,1248.8 584,1248.8 584,1248.8 584.1,1248.8 584.1,720.6 584,720.6 	"/>
</g>
</svg>
